<svg xmlns="http://www.w3.org/2000/svg" width="22" height="69" viewBox="0 0 22 69" shape-rendering="crispEdges">
<rect x="6" y="28" width="12" height="1" fill="black"/>
<rect x="4" y="29" width="14" height="1" fill="black"/>
<rect x="3" y="30" width="16" height="1" fill="black"/>
<rect x="3" y="31" width="6" height="1" fill="black"/>
<rect x="15" y="31" width="5" height="1" fill="black"/>
<rect x="3" y="32" width="5" height="1" fill="black"/>
<rect x="16" y="32" width="5" height="1" fill="black"/>
<rect x="3" y="33" width="4" height="1" fill="black"/>
<rect x="16" y="33" width="5" height="1" fill="black"/>
<rect x="3" y="34" width="2" height="1" fill="black"/>
<rect x="17" y="34" width="4" height="1" fill="black"/>
<rect x="17" y="35" width="4" height="1" fill="black"/>
<rect x="18" y="36" width="3" height="1" fill="black"/>
<rect x="18" y="37" width="3" height="1" fill="black"/>
<rect x="2" y="38" width="19" height="1" fill="black"/>
<rect x="1" y="39" width="20" height="1" fill="black"/>
<rect x="1" y="40" width="20" height="1" fill="black"/>
<rect x="1" y="41" width="5" height="1" fill="black"/>
<rect x="14" y="41" width="7" height="1" fill="black"/>
<rect x="1" y="42" width="4" height="1" fill="black"/>
<rect x="16" y="42" width="5" height="1" fill="black"/>
<rect x="0" y="43" width="5" height="1" fill="black"/>
<rect x="17" y="43" width="5" height="1" fill="black"/>
<rect x="0" y="44" width="5" height="1" fill="black"/>
<rect x="15" y="44" width="7" height="1" fill="black"/>
<rect x="0" y="45" width="22" height="1" fill="black"/>
<rect x="0" y="46" width="21" height="1" fill="black"/>
<rect x="1" y="47" width="20" height="1" fill="black"/>
</svg>
