<svg xmlns="http://www.w3.org/2000/svg" width="25" height="69" viewBox="0 0 25 69" shape-rendering="crispEdges">
<rect x="5" y="16" width="9" height="1" fill="black"/>
<rect x="2" y="17" width="12" height="1" fill="black"/>
<rect x="1" y="18" width="13" height="1" fill="black"/>
<rect x="1" y="19" width="6" height="1" fill="black"/>
<rect x="11" y="19" width="4" height="1" fill="black"/>
<rect x="0" y="20" width="6" height="1" fill="black"/>
<rect x="11" y="20" width="4" height="1" fill="black"/>
<rect x="0" y="21" width="5" height="1" fill="black"/>
<rect x="11" y="21" width="4" height="1" fill="black"/>
<rect x="0" y="22" width="5" height="1" fill="black"/>
<rect x="12" y="22" width="3" height="1" fill="black"/>
<rect x="0" y="23" width="5" height="1" fill="black"/>
<rect x="12" y="23" width="3" height="1" fill="black"/>
<rect x="0" y="24" width="5" height="1" fill="black"/>
<rect x="11" y="24" width="4" height="1" fill="black"/>
<rect x="0" y="25" width="6" height="1" fill="black"/>
<rect x="11" y="25" width="4" height="1" fill="black"/>
<rect x="1" y="26" width="6" height="1" fill="black"/>
<rect x="10" y="26" width="5" height="1" fill="black"/>
<rect x="1" y="27" width="6" height="1" fill="black"/>
<rect x="9" y="27" width="6" height="1" fill="black"/>
<rect x="2" y="28" width="12" height="1" fill="black"/>
<rect x="3" y="29" width="11" height="1" fill="black"/>
<rect x="4" y="30" width="8" height="1" fill="black"/>
<rect x="4" y="31" width="8" height="1" fill="black"/>
<rect x="3" y="32" width="11" height="1" fill="black"/>
<rect x="2" y="33" width="13" height="1" fill="black"/>
<rect x="0" y="34" width="7" height="1" fill="black"/>
<rect x="9" y="34" width="6" height="1" fill="black"/>
<rect x="20" y="34" width="5" height="1" fill="black"/>
<rect x="0" y="35" width="6" height="1" fill="black"/>
<rect x="11" y="35" width="6" height="1" fill="black"/>
<rect x="19" y="35" width="6" height="1" fill="black"/>
<rect x="0" y="36" width="5" height="1" fill="black"/>
<rect x="11" y="36" width="14" height="1" fill="black"/>
<rect x="0" y="37" width="4" height="1" fill="black"/>
<rect x="12" y="37" width="10" height="1" fill="black"/>
<rect x="0" y="38" width="3" height="1" fill="black"/>
<rect x="14" y="38" width="9" height="1" fill="black"/>
<rect x="0" y="39" width="3" height="1" fill="black"/>
<rect x="13" y="39" width="11" height="1" fill="black"/>
<rect x="0" y="40" width="3" height="1" fill="black"/>
<rect x="11" y="40" width="14" height="1" fill="black"/>
<rect x="0" y="41" width="4" height="1" fill="black"/>
<rect x="9" y="41" width="8" height="1" fill="black"/>
<rect x="19" y="41" width="6" height="1" fill="black"/>
<rect x="0" y="42" width="16" height="1" fill="black"/>
<rect x="20" y="42" width="5" height="1" fill="black"/>
<rect x="0" y="43" width="14" height="1" fill="black"/>
<rect x="0" y="44" width="11" height="1" fill="black"/>
</svg>
