<svg xmlns="http://www.w3.org/2000/svg" width="21" height="69" viewBox="0 0 21 69" shape-rendering="crispEdges">
<rect x="3" y="25" width="8" height="1" fill="black"/>
<rect x="17" y="25" width="4" height="1" fill="black"/>
<rect x="2" y="26" width="10" height="1" fill="black"/>
<rect x="17" y="26" width="4" height="1" fill="black"/>
<rect x="1" y="27" width="12" height="1" fill="black"/>
<rect x="17" y="27" width="4" height="1" fill="black"/>
<rect x="0" y="28" width="14" height="1" fill="black"/>
<rect x="17" y="28" width="4" height="1" fill="black"/>
<rect x="0" y="29" width="4" height="1" fill="black"/>
<rect x="8" y="29" width="7" height="1" fill="black"/>
<rect x="16" y="29" width="5" height="1" fill="black"/>
<rect x="0" y="30" width="4" height="1" fill="black"/>
<rect x="9" y="30" width="11" height="1" fill="black"/>
<rect x="0" y="31" width="3" height="1" fill="black"/>
<rect x="10" y="31" width="10" height="1" fill="black"/>
<rect x="11" y="32" width="8" height="1" fill="black"/>
</svg>
