<svg xmlns="http://www.w3.org/2000/svg" width="23" height="69" viewBox="0 0 23 69" shape-rendering="crispEdges">
<rect x="11" y="18" width="2" height="1" fill="black"/>
<rect x="10" y="19" width="3" height="1" fill="black"/>
<rect x="9" y="20" width="4" height="1" fill="black"/>
<rect x="8" y="21" width="6" height="1" fill="black"/>
<rect x="8" y="22" width="6" height="1" fill="black"/>
<rect x="8" y="23" width="7" height="1" fill="black"/>
<rect x="7" y="24" width="16" height="1" fill="black"/>
<rect x="1" y="25" width="21" height="1" fill="black"/>
<rect x="0" y="26" width="20" height="1" fill="black"/>
<rect x="0" y="27" width="19" height="1" fill="black"/>
<rect x="0" y="28" width="19" height="1" fill="black"/>
<rect x="2" y="29" width="15" height="1" fill="black"/>
<rect x="3" y="30" width="14" height="1" fill="black"/>
<rect x="4" y="31" width="13" height="1" fill="black"/>
<rect x="5" y="32" width="12" height="1" fill="black"/>
<rect x="4" y="33" width="14" height="1" fill="black"/>
<rect x="4" y="34" width="14" height="1" fill="black"/>
<rect x="3" y="35" width="6" height="1" fill="black"/>
<rect x="12" y="35" width="6" height="1" fill="black"/>
<rect x="3" y="36" width="5" height="1" fill="black"/>
<rect x="13" y="36" width="6" height="1" fill="black"/>
<rect x="3" y="37" width="4" height="1" fill="black"/>
<rect x="15" y="37" width="4" height="1" fill="black"/>
<rect x="3" y="38" width="3" height="1" fill="black"/>
<rect x="16" y="38" width="3" height="1" fill="black"/>
</svg>
