<svg xmlns="http://www.w3.org/2000/svg" width="17" height="69" viewBox="0 0 17 69" shape-rendering="crispEdges">
<rect x="0" y="15" width="3" height="1" fill="black"/>
<rect x="0" y="16" width="4" height="1" fill="black"/>
<rect x="0" y="17" width="4" height="1" fill="black"/>
<rect x="0" y="18" width="5" height="1" fill="black"/>
<rect x="0" y="19" width="5" height="1" fill="black"/>
<rect x="1" y="20" width="5" height="1" fill="black"/>
<rect x="2" y="21" width="4" height="1" fill="black"/>
<rect x="2" y="22" width="5" height="1" fill="black"/>
<rect x="3" y="23" width="4" height="1" fill="black"/>
<rect x="3" y="24" width="5" height="1" fill="black"/>
<rect x="4" y="25" width="4" height="1" fill="black"/>
<rect x="4" y="26" width="5" height="1" fill="black"/>
<rect x="5" y="27" width="4" height="1" fill="black"/>
<rect x="5" y="28" width="4" height="1" fill="black"/>
<rect x="6" y="29" width="4" height="1" fill="black"/>
<rect x="6" y="30" width="4" height="1" fill="black"/>
<rect x="6" y="31" width="4" height="1" fill="black"/>
<rect x="7" y="32" width="3" height="1" fill="black"/>
<rect x="7" y="33" width="4" height="1" fill="black"/>
<rect x="7" y="34" width="5" height="1" fill="black"/>
<rect x="7" y="35" width="5" height="1" fill="black"/>
<rect x="8" y="36" width="5" height="1" fill="black"/>
<rect x="8" y="37" width="5" height="1" fill="black"/>
<rect x="9" y="38" width="4" height="1" fill="black"/>
<rect x="9" y="39" width="4" height="1" fill="black"/>
<rect x="10" y="40" width="3" height="1" fill="black"/>
<rect x="10" y="41" width="4" height="1" fill="black"/>
<rect x="10" y="42" width="4" height="1" fill="black"/>
<rect x="10" y="43" width="5" height="1" fill="black"/>
<rect x="11" y="44" width="5" height="1" fill="black"/>
<rect x="11" y="45" width="5" height="1" fill="black"/>
<rect x="12" y="46" width="5" height="1" fill="black"/>
<rect x="13" y="47" width="4" height="1" fill="black"/>
</svg>
