<svg xmlns="http://www.w3.org/2000/svg" width="11" height="69" viewBox="0 0 11 69" shape-rendering="crispEdges">
<rect x="0" y="10" width="9" height="1" fill="black"/>
<rect x="0" y="11" width="9" height="1" fill="black"/>
<rect x="0" y="12" width="9" height="1" fill="black"/>
<rect x="0" y="13" width="4" height="1" fill="black"/>
<rect x="0" y="14" width="3" height="1" fill="black"/>
<rect x="0" y="15" width="3" height="1" fill="black"/>
<rect x="0" y="16" width="3" height="1" fill="black"/>
<rect x="0" y="17" width="3" height="1" fill="black"/>
<rect x="0" y="18" width="3" height="1" fill="black"/>
<rect x="0" y="19" width="3" height="1" fill="black"/>
<rect x="0" y="20" width="3" height="1" fill="black"/>
<rect x="0" y="21" width="3" height="1" fill="black"/>
<rect x="0" y="22" width="3" height="1" fill="black"/>
<rect x="0" y="23" width="4" height="1" fill="black"/>
<rect x="0" y="24" width="4" height="1" fill="black"/>
<rect x="1" y="25" width="3" height="1" fill="black"/>
<rect x="1" y="26" width="3" height="1" fill="black"/>
<rect x="1" y="27" width="3" height="1" fill="black"/>
<rect x="1" y="28" width="3" height="1" fill="black"/>
<rect x="1" y="29" width="3" height="1" fill="black"/>
<rect x="1" y="30" width="3" height="1" fill="black"/>
<rect x="1" y="31" width="3" height="1" fill="black"/>
<rect x="1" y="32" width="3" height="1" fill="black"/>
<rect x="1" y="33" width="3" height="1" fill="black"/>
<rect x="1" y="34" width="3" height="1" fill="black"/>
<rect x="1" y="35" width="3" height="1" fill="black"/>
<rect x="1" y="36" width="3" height="1" fill="black"/>
<rect x="1" y="37" width="3" height="1" fill="black"/>
<rect x="1" y="38" width="3" height="1" fill="black"/>
<rect x="1" y="39" width="3" height="1" fill="black"/>
<rect x="1" y="40" width="3" height="1" fill="black"/>
<rect x="1" y="41" width="3" height="1" fill="black"/>
<rect x="1" y="42" width="3" height="1" fill="black"/>
<rect x="1" y="43" width="3" height="1" fill="black"/>
<rect x="1" y="44" width="3" height="1" fill="black"/>
<rect x="1" y="45" width="3" height="1" fill="black"/>
<rect x="1" y="46" width="3" height="1" fill="black"/>
<rect x="1" y="47" width="4" height="1" fill="black"/>
<rect x="1" y="48" width="9" height="1" fill="black"/>
<rect x="1" y="49" width="10" height="1" fill="black"/>
<rect x="1" y="50" width="10" height="1" fill="black"/>
</svg>
