<svg xmlns="http://www.w3.org/2000/svg" width="19" height="69" viewBox="0 0 19 69" shape-rendering="crispEdges">
<rect x="11" y="7" width="5" height="1" fill="black"/>
<rect x="8" y="8" width="11" height="1" fill="black"/>
<rect x="7" y="9" width="12" height="1" fill="black"/>
<rect x="7" y="10" width="12" height="1" fill="black"/>
<rect x="6" y="11" width="6" height="1" fill="black"/>
<rect x="6" y="12" width="5" height="1" fill="black"/>
<rect x="6" y="13" width="4" height="1" fill="black"/>
<rect x="6" y="14" width="3" height="1" fill="black"/>
<rect x="6" y="15" width="3" height="1" fill="black"/>
<rect x="6" y="16" width="3" height="1" fill="black"/>
<rect x="6" y="17" width="3" height="1" fill="black"/>
<rect x="6" y="18" width="3" height="1" fill="black"/>
<rect x="6" y="19" width="3" height="1" fill="black"/>
<rect x="6" y="20" width="3" height="1" fill="black"/>
<rect x="6" y="21" width="4" height="1" fill="black"/>
<rect x="6" y="22" width="4" height="1" fill="black"/>
<rect x="6" y="23" width="4" height="1" fill="black"/>
<rect x="5" y="24" width="5" height="1" fill="black"/>
<rect x="3" y="25" width="7" height="1" fill="black"/>
<rect x="1" y="26" width="8" height="1" fill="black"/>
<rect x="1" y="27" width="9" height="1" fill="black"/>
<rect x="1" y="28" width="9" height="1" fill="black"/>
<rect x="5" y="29" width="5" height="1" fill="black"/>
<rect x="6" y="30" width="4" height="1" fill="black"/>
<rect x="7" y="31" width="3" height="1" fill="black"/>
<rect x="7" y="32" width="3" height="1" fill="black"/>
<rect x="7" y="33" width="3" height="1" fill="black"/>
<rect x="7" y="34" width="3" height="1" fill="black"/>
<rect x="7" y="35" width="3" height="1" fill="black"/>
<rect x="7" y="36" width="3" height="1" fill="black"/>
<rect x="7" y="37" width="3" height="1" fill="black"/>
<rect x="7" y="38" width="3" height="1" fill="black"/>
<rect x="7" y="39" width="3" height="1" fill="black"/>
<rect x="7" y="40" width="3" height="1" fill="black"/>
<rect x="7" y="41" width="4" height="1" fill="black"/>
<rect x="7" y="42" width="4" height="1" fill="black"/>
<rect x="7" y="43" width="5" height="1" fill="black"/>
<rect x="7" y="44" width="7" height="1" fill="black"/>
<rect x="8" y="45" width="10" height="1" fill="black"/>
<rect x="9" y="46" width="9" height="1" fill="black"/>
<rect x="9" y="47" width="9" height="1" fill="black"/>
<rect x="11" y="48" width="7" height="1" fill="black"/>
</svg>
