<svg xmlns="http://www.w3.org/2000/svg" width="18" height="69" viewBox="0 0 18 69" shape-rendering="crispEdges">
<rect x="5" y="29" width="7" height="1" fill="black"/>
<rect x="3" y="30" width="11" height="1" fill="black"/>
<rect x="2" y="31" width="13" height="1" fill="black"/>
<rect x="1" y="32" width="7" height="1" fill="black"/>
<rect x="9" y="32" width="7" height="1" fill="black"/>
<rect x="1" y="33" width="5" height="1" fill="black"/>
<rect x="11" y="33" width="4" height="1" fill="black"/>
<rect x="0" y="34" width="5" height="1" fill="black"/>
<rect x="0" y="35" width="4" height="1" fill="black"/>
<rect x="0" y="36" width="4" height="1" fill="black"/>
<rect x="0" y="37" width="3" height="1" fill="black"/>
<rect x="0" y="38" width="3" height="1" fill="black"/>
<rect x="0" y="39" width="3" height="1" fill="black"/>
<rect x="0" y="40" width="3" height="1" fill="black"/>
<rect x="0" y="41" width="3" height="1" fill="black"/>
<rect x="0" y="42" width="4" height="1" fill="black"/>
<rect x="0" y="43" width="5" height="1" fill="black"/>
<rect x="0" y="44" width="6" height="1" fill="black"/>
<rect x="13" y="44" width="5" height="1" fill="black"/>
<rect x="1" y="45" width="17" height="1" fill="black"/>
<rect x="1" y="46" width="17" height="1" fill="black"/>
<rect x="2" y="47" width="14" height="1" fill="black"/>
</svg>
