<svg xmlns="http://www.w3.org/2000/svg" width="25" height="69" viewBox="0 0 25 69" shape-rendering="crispEdges">
<rect x="9" y="13" width="1" height="1" fill="black"/>
<rect x="8" y="14" width="3" height="1" fill="black"/>
<rect x="8" y="15" width="3" height="1" fill="black"/>
<rect x="8" y="16" width="3" height="1" fill="black"/>
<rect x="8" y="17" width="4" height="1" fill="black"/>
<rect x="7" y="18" width="6" height="1" fill="black"/>
<rect x="6" y="19" width="12" height="1" fill="black"/>
<rect x="4" y="20" width="18" height="1" fill="black"/>
<rect x="3" y="21" width="20" height="1" fill="black"/>
<rect x="2" y="22" width="11" height="1" fill="black"/>
<rect x="16" y="22" width="8" height="1" fill="black"/>
<rect x="1" y="23" width="6" height="1" fill="black"/>
<rect x="9" y="23" width="4" height="1" fill="black"/>
<rect x="18" y="23" width="7" height="1" fill="black"/>
<rect x="1" y="24" width="5" height="1" fill="black"/>
<rect x="9" y="24" width="4" height="1" fill="black"/>
<rect x="19" y="24" width="6" height="1" fill="black"/>
<rect x="1" y="25" width="4" height="1" fill="black"/>
<rect x="10" y="25" width="3" height="1" fill="black"/>
<rect x="20" y="25" width="5" height="1" fill="black"/>
<rect x="1" y="26" width="3" height="1" fill="black"/>
<rect x="10" y="26" width="3" height="1" fill="black"/>
<rect x="21" y="26" width="4" height="1" fill="black"/>
<rect x="1" y="27" width="5" height="1" fill="black"/>
<rect x="10" y="27" width="3" height="1" fill="black"/>
<rect x="22" y="27" width="3" height="1" fill="black"/>
<rect x="1" y="28" width="13" height="1" fill="black"/>
<rect x="22" y="28" width="3" height="1" fill="black"/>
<rect x="1" y="29" width="17" height="1" fill="black"/>
<rect x="2" y="30" width="18" height="1" fill="black"/>
<rect x="7" y="31" width="16" height="1" fill="black"/>
<rect x="9" y="32" width="4" height="1" fill="black"/>
<rect x="14" y="32" width="11" height="1" fill="black"/>
<rect x="10" y="33" width="3" height="1" fill="black"/>
<rect x="18" y="33" width="7" height="1" fill="black"/>
<rect x="10" y="34" width="3" height="1" fill="black"/>
<rect x="19" y="34" width="6" height="1" fill="black"/>
<rect x="0" y="35" width="3" height="1" fill="black"/>
<rect x="10" y="35" width="3" height="1" fill="black"/>
<rect x="20" y="35" width="5" height="1" fill="black"/>
<rect x="0" y="36" width="5" height="1" fill="black"/>
<rect x="10" y="36" width="3" height="1" fill="black"/>
<rect x="20" y="36" width="5" height="1" fill="black"/>
<rect x="0" y="37" width="7" height="1" fill="black"/>
<rect x="9" y="37" width="4" height="1" fill="black"/>
<rect x="20" y="37" width="5" height="1" fill="black"/>
<rect x="0" y="38" width="14" height="1" fill="black"/>
<rect x="18" y="38" width="7" height="1" fill="black"/>
<rect x="1" y="39" width="23" height="1" fill="black"/>
<rect x="2" y="40" width="22" height="1" fill="black"/>
<rect x="5" y="41" width="16" height="1" fill="black"/>
<rect x="9" y="42" width="4" height="1" fill="black"/>
<rect x="10" y="43" width="3" height="1" fill="black"/>
<rect x="10" y="44" width="3" height="1" fill="black"/>
<rect x="10" y="45" width="3" height="1" fill="black"/>
<rect x="10" y="46" width="3" height="1" fill="black"/>
<rect x="10" y="47" width="3" height="1" fill="black"/>
</svg>
