<svg xmlns="http://www.w3.org/2000/svg" width="23" height="69" viewBox="0 0 23 69" shape-rendering="crispEdges">
<rect x="4" y="22" width="13" height="1" fill="black"/>
<rect x="4" y="23" width="14" height="1" fill="black"/>
<rect x="3" y="24" width="16" height="1" fill="black"/>
<rect x="3" y="25" width="5" height="1" fill="black"/>
<rect x="12" y="25" width="7" height="1" fill="black"/>
<rect x="3" y="26" width="4" height="1" fill="black"/>
<rect x="14" y="26" width="5" height="1" fill="black"/>
<rect x="2" y="27" width="4" height="1" fill="black"/>
<rect x="15" y="27" width="4" height="1" fill="black"/>
<rect x="1" y="28" width="5" height="1" fill="black"/>
<rect x="16" y="28" width="3" height="1" fill="black"/>
<rect x="1" y="29" width="4" height="1" fill="black"/>
<rect x="15" y="29" width="4" height="1" fill="black"/>
<rect x="1" y="30" width="4" height="1" fill="black"/>
<rect x="14" y="30" width="5" height="1" fill="black"/>
<rect x="1" y="31" width="5" height="1" fill="black"/>
<rect x="13" y="31" width="6" height="1" fill="black"/>
<rect x="1" y="32" width="7" height="1" fill="black"/>
<rect x="11" y="32" width="7" height="1" fill="black"/>
<rect x="2" y="33" width="16" height="1" fill="black"/>
<rect x="3" y="34" width="15" height="1" fill="black"/>
<rect x="3" y="35" width="17" height="1" fill="black"/>
<rect x="2" y="36" width="19" height="1" fill="black"/>
<rect x="1" y="37" width="6" height="1" fill="black"/>
<rect x="9" y="37" width="13" height="1" fill="black"/>
<rect x="1" y="38" width="4" height="1" fill="black"/>
<rect x="16" y="38" width="7" height="1" fill="black"/>
<rect x="0" y="39" width="4" height="1" fill="black"/>
<rect x="18" y="39" width="5" height="1" fill="black"/>
<rect x="0" y="40" width="4" height="1" fill="black"/>
<rect x="19" y="40" width="4" height="1" fill="black"/>
<rect x="0" y="41" width="3" height="1" fill="black"/>
<rect x="19" y="41" width="4" height="1" fill="black"/>
<rect x="0" y="42" width="3" height="1" fill="black"/>
<rect x="18" y="42" width="5" height="1" fill="black"/>
<rect x="0" y="43" width="3" height="1" fill="black"/>
<rect x="18" y="43" width="5" height="1" fill="black"/>
<rect x="0" y="44" width="3" height="1" fill="black"/>
<rect x="17" y="44" width="5" height="1" fill="black"/>
<rect x="0" y="45" width="4" height="1" fill="black"/>
<rect x="16" y="45" width="6" height="1" fill="black"/>
<rect x="0" y="46" width="5" height="1" fill="black"/>
<rect x="14" y="46" width="7" height="1" fill="black"/>
<rect x="0" y="47" width="7" height="1" fill="black"/>
<rect x="11" y="47" width="9" height="1" fill="black"/>
<rect x="1" y="48" width="18" height="1" fill="black"/>
<rect x="1" y="49" width="16" height="1" fill="black"/>
<rect x="4" y="50" width="10" height="1" fill="black"/>
</svg>
