<svg xmlns="http://www.w3.org/2000/svg" width="21" height="69" viewBox="0 0 21 69" shape-rendering="crispEdges">
<rect x="9" y="19" width="8" height="1" fill="black"/>
<rect x="8" y="20" width="11" height="1" fill="black"/>
<rect x="8" y="21" width="12" height="1" fill="black"/>
<rect x="8" y="22" width="5" height="1" fill="black"/>
<rect x="14" y="22" width="7" height="1" fill="black"/>
<rect x="7" y="23" width="5" height="1" fill="black"/>
<rect x="15" y="23" width="6" height="1" fill="black"/>
<rect x="7" y="24" width="4" height="1" fill="black"/>
<rect x="16" y="24" width="5" height="1" fill="black"/>
<rect x="7" y="25" width="4" height="1" fill="black"/>
<rect x="17" y="25" width="4" height="1" fill="black"/>
<rect x="7" y="26" width="3" height="1" fill="black"/>
<rect x="18" y="26" width="3" height="1" fill="black"/>
<rect x="7" y="27" width="3" height="1" fill="black"/>
<rect x="7" y="28" width="3" height="1" fill="black"/>
<rect x="7" y="29" width="3" height="1" fill="black"/>
<rect x="7" y="30" width="3" height="1" fill="black"/>
<rect x="7" y="31" width="3" height="1" fill="black"/>
<rect x="7" y="32" width="3" height="1" fill="black"/>
<rect x="7" y="33" width="3" height="1" fill="black"/>
<rect x="6" y="34" width="4" height="1" fill="black"/>
<rect x="2" y="35" width="18" height="1" fill="black"/>
<rect x="1" y="36" width="19" height="1" fill="black"/>
<rect x="0" y="37" width="20" height="1" fill="black"/>
<rect x="0" y="38" width="11" height="1" fill="black"/>
<rect x="1" y="39" width="2" height="1" fill="black"/>
<rect x="6" y="39" width="4" height="1" fill="black"/>
<rect x="7" y="40" width="3" height="1" fill="black"/>
<rect x="7" y="41" width="3" height="1" fill="black"/>
<rect x="7" y="42" width="4" height="1" fill="black"/>
<rect x="7" y="43" width="4" height="1" fill="black"/>
<rect x="7" y="44" width="4" height="1" fill="black"/>
<rect x="8" y="45" width="3" height="1" fill="black"/>
<rect x="8" y="46" width="3" height="1" fill="black"/>
<rect x="8" y="47" width="3" height="1" fill="black"/>
<rect x="8" y="48" width="3" height="1" fill="black"/>
<rect x="8" y="49" width="3" height="1" fill="black"/>
</svg>
