<svg xmlns="http://www.w3.org/2000/svg" width="20" height="69" viewBox="0 0 20 69" shape-rendering="crispEdges">
<rect x="3" y="29" width="13" height="1" fill="black"/>
<rect x="2" y="30" width="14" height="1" fill="black"/>
<rect x="1" y="31" width="16" height="1" fill="black"/>
<rect x="1" y="32" width="6" height="1" fill="black"/>
<rect x="12" y="32" width="5" height="1" fill="black"/>
<rect x="0" y="33" width="6" height="1" fill="black"/>
<rect x="13" y="33" width="5" height="1" fill="black"/>
<rect x="0" y="34" width="5" height="1" fill="black"/>
<rect x="14" y="34" width="4" height="1" fill="black"/>
<rect x="0" y="35" width="4" height="1" fill="black"/>
<rect x="14" y="35" width="4" height="1" fill="black"/>
<rect x="0" y="36" width="4" height="1" fill="black"/>
<rect x="15" y="36" width="4" height="1" fill="black"/>
<rect x="0" y="37" width="3" height="1" fill="black"/>
<rect x="15" y="37" width="4" height="1" fill="black"/>
<rect x="0" y="38" width="3" height="1" fill="black"/>
<rect x="14" y="38" width="5" height="1" fill="black"/>
<rect x="0" y="39" width="3" height="1" fill="black"/>
<rect x="14" y="39" width="5" height="1" fill="black"/>
<rect x="0" y="40" width="3" height="1" fill="black"/>
<rect x="13" y="40" width="7" height="1" fill="black"/>
<rect x="0" y="41" width="3" height="1" fill="black"/>
<rect x="13" y="41" width="7" height="1" fill="black"/>
<rect x="0" y="42" width="4" height="1" fill="black"/>
<rect x="11" y="42" width="9" height="1" fill="black"/>
<rect x="0" y="43" width="16" height="1" fill="black"/>
<rect x="17" y="43" width="3" height="1" fill="black"/>
<rect x="0" y="44" width="16" height="1" fill="black"/>
<rect x="17" y="44" width="3" height="1" fill="black"/>
<rect x="2" y="45" width="13" height="1" fill="black"/>
<rect x="17" y="45" width="3" height="1" fill="black"/>
<rect x="17" y="46" width="3" height="1" fill="black"/>
<rect x="17" y="47" width="3" height="1" fill="black"/>
<rect x="17" y="48" width="3" height="1" fill="black"/>
<rect x="17" y="49" width="3" height="1" fill="black"/>
<rect x="17" y="50" width="3" height="1" fill="black"/>
<rect x="17" y="51" width="3" height="1" fill="black"/>
<rect x="17" y="52" width="3" height="1" fill="black"/>
<rect x="2" y="53" width="3" height="1" fill="black"/>
<rect x="17" y="53" width="3" height="1" fill="black"/>
<rect x="1" y="54" width="4" height="1" fill="black"/>
<rect x="16" y="54" width="4" height="1" fill="black"/>
<rect x="1" y="55" width="5" height="1" fill="black"/>
<rect x="15" y="55" width="5" height="1" fill="black"/>
<rect x="1" y="56" width="5" height="1" fill="black"/>
<rect x="14" y="56" width="6" height="1" fill="black"/>
<rect x="1" y="57" width="6" height="1" fill="black"/>
<rect x="12" y="57" width="7" height="1" fill="black"/>
<rect x="2" y="58" width="17" height="1" fill="black"/>
<rect x="3" y="59" width="15" height="1" fill="black"/>
<rect x="4" y="60" width="12" height="1" fill="black"/>
</svg>
