<svg xmlns="http://www.w3.org/2000/svg" width="17" height="69" viewBox="0 0 17 69" shape-rendering="crispEdges">
<rect x="1" y="18" width="4" height="1" fill="black"/>
<rect x="0" y="19" width="6" height="1" fill="black"/>
<rect x="1" y="20" width="6" height="1" fill="black"/>
<rect x="3" y="21" width="5" height="1" fill="black"/>
<rect x="3" y="22" width="5" height="1" fill="black"/>
<rect x="4" y="23" width="5" height="1" fill="black"/>
<rect x="5" y="24" width="5" height="1" fill="black"/>
<rect x="6" y="25" width="5" height="1" fill="black"/>
<rect x="7" y="26" width="6" height="1" fill="black"/>
<rect x="8" y="27" width="6" height="1" fill="black"/>
<rect x="9" y="28" width="7" height="1" fill="black"/>
<rect x="10" y="29" width="6" height="1" fill="black"/>
<rect x="10" y="30" width="6" height="1" fill="black"/>
<rect x="9" y="31" width="7" height="1" fill="black"/>
<rect x="7" y="32" width="7" height="1" fill="black"/>
<rect x="4" y="33" width="9" height="1" fill="black"/>
<rect x="3" y="34" width="9" height="1" fill="black"/>
<rect x="1" y="35" width="9" height="1" fill="black"/>
<rect x="0" y="36" width="8" height="1" fill="black"/>
<rect x="1" y="37" width="5" height="1" fill="black"/>
</svg>
