<svg xmlns="http://www.w3.org/2000/svg" width="17" height="69" viewBox="0 0 17 69" shape-rendering="crispEdges">
<rect x="0" y="17" width="3" height="1" fill="black"/>
<rect x="0" y="18" width="3" height="1" fill="black"/>
<rect x="0" y="19" width="3" height="1" fill="black"/>
<rect x="0" y="20" width="3" height="1" fill="black"/>
<rect x="0" y="21" width="3" height="1" fill="black"/>
<rect x="0" y="22" width="3" height="1" fill="black"/>
<rect x="0" y="23" width="3" height="1" fill="black"/>
<rect x="0" y="24" width="3" height="1" fill="black"/>
<rect x="0" y="25" width="3" height="1" fill="black"/>
<rect x="0" y="26" width="3" height="1" fill="black"/>
<rect x="0" y="27" width="3" height="1" fill="black"/>
<rect x="0" y="28" width="3" height="1" fill="black"/>
<rect x="0" y="29" width="3" height="1" fill="black"/>
<rect x="0" y="30" width="3" height="1" fill="black"/>
<rect x="0" y="31" width="3" height="1" fill="black"/>
<rect x="5" y="31" width="9" height="1" fill="black"/>
<rect x="0" y="32" width="15" height="1" fill="black"/>
<rect x="0" y="33" width="16" height="1" fill="black"/>
<rect x="0" y="34" width="8" height="1" fill="black"/>
<rect x="11" y="34" width="5" height="1" fill="black"/>
<rect x="0" y="35" width="6" height="1" fill="black"/>
<rect x="12" y="35" width="5" height="1" fill="black"/>
<rect x="0" y="36" width="5" height="1" fill="black"/>
<rect x="13" y="36" width="4" height="1" fill="black"/>
<rect x="0" y="37" width="5" height="1" fill="black"/>
<rect x="13" y="37" width="4" height="1" fill="black"/>
<rect x="0" y="38" width="4" height="1" fill="black"/>
<rect x="14" y="38" width="3" height="1" fill="black"/>
<rect x="0" y="39" width="4" height="1" fill="black"/>
<rect x="14" y="39" width="3" height="1" fill="black"/>
<rect x="0" y="40" width="3" height="1" fill="black"/>
<rect x="14" y="40" width="3" height="1" fill="black"/>
<rect x="0" y="41" width="3" height="1" fill="black"/>
<rect x="14" y="41" width="3" height="1" fill="black"/>
<rect x="0" y="42" width="3" height="1" fill="black"/>
<rect x="14" y="42" width="3" height="1" fill="black"/>
<rect x="0" y="43" width="3" height="1" fill="black"/>
<rect x="14" y="43" width="3" height="1" fill="black"/>
<rect x="0" y="44" width="3" height="1" fill="black"/>
<rect x="14" y="44" width="3" height="1" fill="black"/>
<rect x="0" y="45" width="3" height="1" fill="black"/>
<rect x="14" y="45" width="3" height="1" fill="black"/>
<rect x="0" y="46" width="3" height="1" fill="black"/>
<rect x="14" y="46" width="3" height="1" fill="black"/>
<rect x="14" y="47" width="3" height="1" fill="black"/>
</svg>
