<svg xmlns="http://www.w3.org/2000/svg" width="6" height="69" viewBox="0 0 6 69" shape-rendering="crispEdges">
<rect x="0" y="25" width="4" height="1" fill="black"/>
<rect x="0" y="26" width="4" height="1" fill="black"/>
<rect x="0" y="27" width="4" height="1" fill="black"/>
<rect x="4" y="32" width="1" height="1" fill="black"/>
<rect x="2" y="33" width="4" height="1" fill="black"/>
<rect x="2" y="34" width="4" height="1" fill="black"/>
<rect x="2" y="35" width="4" height="1" fill="black"/>
<rect x="2" y="36" width="4" height="1" fill="black"/>
<rect x="2" y="37" width="3" height="1" fill="black"/>
<rect x="2" y="38" width="3" height="1" fill="black"/>
<rect x="2" y="39" width="3" height="1" fill="black"/>
<rect x="2" y="40" width="3" height="1" fill="black"/>
<rect x="2" y="41" width="3" height="1" fill="black"/>
<rect x="2" y="42" width="3" height="1" fill="black"/>
<rect x="2" y="43" width="3" height="1" fill="black"/>
<rect x="2" y="44" width="3" height="1" fill="black"/>
<rect x="2" y="45" width="3" height="1" fill="black"/>
<rect x="2" y="46" width="3" height="1" fill="black"/>
<rect x="2" y="47" width="3" height="1" fill="black"/>
<rect x="2" y="48" width="3" height="1" fill="black"/>
<rect x="2" y="49" width="2" height="1" fill="black"/>
</svg>
