<svg xmlns="http://www.w3.org/2000/svg" width="12" height="69" viewBox="0 0 12 69" shape-rendering="crispEdges">
<rect x="3" y="20" width="4" height="1" fill="black"/>
<rect x="3" y="21" width="4" height="1" fill="black"/>
<rect x="3" y="22" width="4" height="1" fill="black"/>
<rect x="3" y="23" width="4" height="1" fill="black"/>
<rect x="5" y="29" width="3" height="1" fill="black"/>
<rect x="5" y="30" width="3" height="1" fill="black"/>
<rect x="5" y="31" width="3" height="1" fill="black"/>
<rect x="5" y="32" width="4" height="1" fill="black"/>
<rect x="5" y="33" width="4" height="1" fill="black"/>
<rect x="5" y="34" width="5" height="1" fill="black"/>
<rect x="6" y="35" width="4" height="1" fill="black"/>
<rect x="6" y="36" width="4" height="1" fill="black"/>
<rect x="7" y="37" width="3" height="1" fill="black"/>
<rect x="7" y="38" width="3" height="1" fill="black"/>
<rect x="7" y="39" width="4" height="1" fill="black"/>
<rect x="7" y="40" width="4" height="1" fill="black"/>
<rect x="7" y="41" width="4" height="1" fill="black"/>
<rect x="8" y="42" width="3" height="1" fill="black"/>
<rect x="8" y="43" width="3" height="1" fill="black"/>
<rect x="8" y="44" width="3" height="1" fill="black"/>
<rect x="8" y="45" width="4" height="1" fill="black"/>
<rect x="8" y="46" width="4" height="1" fill="black"/>
<rect x="9" y="47" width="3" height="1" fill="black"/>
<rect x="9" y="48" width="3" height="1" fill="black"/>
<rect x="9" y="49" width="3" height="1" fill="black"/>
<rect x="0" y="50" width="3" height="1" fill="black"/>
<rect x="9" y="50" width="3" height="1" fill="black"/>
<rect x="0" y="51" width="4" height="1" fill="black"/>
<rect x="9" y="51" width="3" height="1" fill="black"/>
<rect x="0" y="52" width="4" height="1" fill="black"/>
<rect x="9" y="52" width="3" height="1" fill="black"/>
<rect x="0" y="53" width="5" height="1" fill="black"/>
<rect x="9" y="53" width="3" height="1" fill="black"/>
<rect x="0" y="54" width="5" height="1" fill="black"/>
<rect x="9" y="54" width="3" height="1" fill="black"/>
<rect x="0" y="55" width="6" height="1" fill="black"/>
<rect x="9" y="55" width="3" height="1" fill="black"/>
<rect x="1" y="56" width="11" height="1" fill="black"/>
<rect x="1" y="57" width="11" height="1" fill="black"/>
<rect x="2" y="58" width="10" height="1" fill="black"/>
</svg>
