<svg xmlns="http://www.w3.org/2000/svg" width="19" height="69" viewBox="0 0 19 69" shape-rendering="crispEdges">
<rect x="0" y="19" width="3" height="1" fill="black"/>
<rect x="0" y="20" width="3" height="1" fill="black"/>
<rect x="0" y="21" width="3" height="1" fill="black"/>
<rect x="0" y="22" width="3" height="1" fill="black"/>
<rect x="0" y="23" width="3" height="1" fill="black"/>
<rect x="0" y="24" width="3" height="1" fill="black"/>
<rect x="0" y="25" width="3" height="1" fill="black"/>
<rect x="0" y="26" width="3" height="1" fill="black"/>
<rect x="0" y="27" width="3" height="1" fill="black"/>
<rect x="0" y="28" width="3" height="1" fill="black"/>
<rect x="12" y="28" width="3" height="1" fill="black"/>
<rect x="0" y="29" width="3" height="1" fill="black"/>
<rect x="11" y="29" width="4" height="1" fill="black"/>
<rect x="0" y="30" width="3" height="1" fill="black"/>
<rect x="10" y="30" width="5" height="1" fill="black"/>
<rect x="0" y="31" width="3" height="1" fill="black"/>
<rect x="9" y="31" width="6" height="1" fill="black"/>
<rect x="0" y="32" width="3" height="1" fill="black"/>
<rect x="8" y="32" width="7" height="1" fill="black"/>
<rect x="0" y="33" width="3" height="1" fill="black"/>
<rect x="6" y="33" width="8" height="1" fill="black"/>
<rect x="0" y="34" width="3" height="1" fill="black"/>
<rect x="4" y="34" width="8" height="1" fill="black"/>
<rect x="0" y="35" width="11" height="1" fill="black"/>
<rect x="0" y="36" width="8" height="1" fill="black"/>
<rect x="0" y="37" width="7" height="1" fill="black"/>
<rect x="0" y="38" width="8" height="1" fill="black"/>
<rect x="0" y="39" width="11" height="1" fill="black"/>
<rect x="0" y="40" width="14" height="1" fill="black"/>
<rect x="0" y="41" width="3" height="1" fill="black"/>
<rect x="6" y="41" width="9" height="1" fill="black"/>
<rect x="0" y="42" width="3" height="1" fill="black"/>
<rect x="8" y="42" width="9" height="1" fill="black"/>
<rect x="0" y="43" width="3" height="1" fill="black"/>
<rect x="10" y="43" width="9" height="1" fill="black"/>
<rect x="0" y="44" width="3" height="1" fill="black"/>
<rect x="12" y="44" width="7" height="1" fill="black"/>
<rect x="0" y="45" width="3" height="1" fill="black"/>
<rect x="15" y="45" width="4" height="1" fill="black"/>
<rect x="0" y="46" width="3" height="1" fill="black"/>
<rect x="16" y="46" width="3" height="1" fill="black"/>
<rect x="0" y="47" width="3" height="1" fill="black"/>
<rect x="17" y="47" width="1" height="1" fill="black"/>
<rect x="0" y="48" width="3" height="1" fill="black"/>
</svg>
