<svg xmlns="http://www.w3.org/2000/svg" width="14" height="69" viewBox="0 0 14 69" shape-rendering="crispEdges">
<rect x="8" y="16" width="5" height="1" fill="black"/>
<rect x="7" y="17" width="6" height="1" fill="black"/>
<rect x="6" y="18" width="6" height="1" fill="black"/>
<rect x="5" y="19" width="7" height="1" fill="black"/>
<rect x="4" y="20" width="7" height="1" fill="black"/>
<rect x="4" y="21" width="6" height="1" fill="black"/>
<rect x="3" y="22" width="6" height="1" fill="black"/>
<rect x="1" y="23" width="7" height="1" fill="black"/>
<rect x="0" y="24" width="7" height="1" fill="black"/>
<rect x="0" y="25" width="6" height="1" fill="black"/>
<rect x="0" y="26" width="5" height="1" fill="black"/>
<rect x="0" y="27" width="4" height="1" fill="black"/>
<rect x="0" y="28" width="3" height="1" fill="black"/>
<rect x="0" y="29" width="5" height="1" fill="black"/>
<rect x="0" y="30" width="6" height="1" fill="black"/>
<rect x="1" y="31" width="6" height="1" fill="black"/>
<rect x="2" y="32" width="7" height="1" fill="black"/>
<rect x="3" y="33" width="8" height="1" fill="black"/>
<rect x="4" y="34" width="8" height="1" fill="black"/>
<rect x="6" y="35" width="7" height="1" fill="black"/>
<rect x="7" y="36" width="7" height="1" fill="black"/>
<rect x="8" y="37" width="6" height="1" fill="black"/>
<rect x="10" y="38" width="4" height="1" fill="black"/>
</svg>
