<svg xmlns="http://www.w3.org/2000/svg" width="27" height="69" viewBox="0 0 27 69" shape-rendering="crispEdges">
<rect x="0" y="30" width="3" height="1" fill="black"/>
<rect x="0" y="31" width="3" height="1" fill="black"/>
<rect x="5" y="31" width="8" height="1" fill="black"/>
<rect x="18" y="31" width="5" height="1" fill="black"/>
<rect x="0" y="32" width="23" height="1" fill="black"/>
<rect x="0" y="33" width="24" height="1" fill="black"/>
<rect x="0" y="34" width="8" height="1" fill="black"/>
<rect x="9" y="34" width="16" height="1" fill="black"/>
<rect x="0" y="35" width="6" height="1" fill="black"/>
<rect x="10" y="35" width="8" height="1" fill="black"/>
<rect x="21" y="35" width="5" height="1" fill="black"/>
<rect x="0" y="36" width="5" height="1" fill="black"/>
<rect x="11" y="36" width="6" height="1" fill="black"/>
<rect x="22" y="36" width="4" height="1" fill="black"/>
<rect x="0" y="37" width="4" height="1" fill="black"/>
<rect x="11" y="37" width="5" height="1" fill="black"/>
<rect x="22" y="37" width="4" height="1" fill="black"/>
<rect x="0" y="38" width="3" height="1" fill="black"/>
<rect x="11" y="38" width="4" height="1" fill="black"/>
<rect x="22" y="38" width="4" height="1" fill="black"/>
<rect x="0" y="39" width="3" height="1" fill="black"/>
<rect x="11" y="39" width="3" height="1" fill="black"/>
<rect x="22" y="39" width="4" height="1" fill="black"/>
<rect x="0" y="40" width="3" height="1" fill="black"/>
<rect x="11" y="40" width="3" height="1" fill="black"/>
<rect x="22" y="40" width="4" height="1" fill="black"/>
<rect x="0" y="41" width="3" height="1" fill="black"/>
<rect x="11" y="41" width="3" height="1" fill="black"/>
<rect x="22" y="41" width="4" height="1" fill="black"/>
<rect x="0" y="42" width="3" height="1" fill="black"/>
<rect x="11" y="42" width="3" height="1" fill="black"/>
<rect x="22" y="42" width="4" height="1" fill="black"/>
<rect x="0" y="43" width="3" height="1" fill="black"/>
<rect x="11" y="43" width="3" height="1" fill="black"/>
<rect x="22" y="43" width="4" height="1" fill="black"/>
<rect x="0" y="44" width="3" height="1" fill="black"/>
<rect x="11" y="44" width="3" height="1" fill="black"/>
<rect x="22" y="44" width="4" height="1" fill="black"/>
<rect x="0" y="45" width="3" height="1" fill="black"/>
<rect x="11" y="45" width="3" height="1" fill="black"/>
<rect x="22" y="45" width="5" height="1" fill="black"/>
<rect x="0" y="46" width="3" height="1" fill="black"/>
<rect x="11" y="46" width="3" height="1" fill="black"/>
<rect x="22" y="46" width="5" height="1" fill="black"/>
<rect x="23" y="47" width="4" height="1" fill="black"/>
</svg>
