<svg xmlns="http://www.w3.org/2000/svg" width="18" height="69" viewBox="0 0 18 69" shape-rendering="crispEdges">
<rect x="6" y="21" width="7" height="1" fill="black"/>
<rect x="4" y="22" width="10" height="1" fill="black"/>
<rect x="3" y="23" width="15" height="1" fill="black"/>
<rect x="2" y="24" width="16" height="1" fill="black"/>
<rect x="1" y="25" width="7" height="1" fill="black"/>
<rect x="10" y="25" width="8" height="1" fill="black"/>
<rect x="0" y="26" width="5" height="1" fill="black"/>
<rect x="14" y="26" width="4" height="1" fill="black"/>
<rect x="0" y="27" width="5" height="1" fill="black"/>
<rect x="15" y="27" width="3" height="1" fill="black"/>
<rect x="0" y="28" width="4" height="1" fill="black"/>
<rect x="15" y="28" width="3" height="1" fill="black"/>
<rect x="0" y="29" width="4" height="1" fill="black"/>
<rect x="15" y="29" width="3" height="1" fill="black"/>
<rect x="0" y="30" width="3" height="1" fill="black"/>
<rect x="14" y="30" width="4" height="1" fill="black"/>
<rect x="0" y="31" width="3" height="1" fill="black"/>
<rect x="14" y="31" width="4" height="1" fill="black"/>
<rect x="0" y="32" width="3" height="1" fill="black"/>
<rect x="13" y="32" width="5" height="1" fill="black"/>
<rect x="0" y="33" width="3" height="1" fill="black"/>
<rect x="13" y="33" width="5" height="1" fill="black"/>
<rect x="0" y="34" width="5" height="1" fill="black"/>
<rect x="12" y="34" width="6" height="1" fill="black"/>
<rect x="0" y="35" width="6" height="1" fill="black"/>
<rect x="9" y="35" width="9" height="1" fill="black"/>
<rect x="1" y="36" width="17" height="1" fill="black"/>
<rect x="1" y="37" width="17" height="1" fill="black"/>
<rect x="3" y="38" width="10" height="1" fill="black"/>
<rect x="15" y="38" width="3" height="1" fill="black"/>
<rect x="15" y="39" width="3" height="1" fill="black"/>
<rect x="15" y="40" width="3" height="1" fill="black"/>
<rect x="15" y="41" width="3" height="1" fill="black"/>
<rect x="15" y="42" width="3" height="1" fill="black"/>
<rect x="15" y="43" width="3" height="1" fill="black"/>
<rect x="15" y="44" width="3" height="1" fill="black"/>
<rect x="15" y="45" width="3" height="1" fill="black"/>
<rect x="15" y="46" width="3" height="1" fill="black"/>
<rect x="15" y="47" width="3" height="1" fill="black"/>
<rect x="15" y="48" width="3" height="1" fill="black"/>
<rect x="15" y="49" width="3" height="1" fill="black"/>
<rect x="15" y="50" width="3" height="1" fill="black"/>
<rect x="15" y="51" width="3" height="1" fill="black"/>
</svg>
