<svg xmlns="http://www.w3.org/2000/svg" width="28" height="69" viewBox="0 0 28 69" shape-rendering="crispEdges">
<rect x="18" y="13" width="3" height="1" fill="black"/>
<rect x="10" y="14" width="1" height="1" fill="black"/>
<rect x="17" y="14" width="4" height="1" fill="black"/>
<rect x="9" y="15" width="3" height="1" fill="black"/>
<rect x="17" y="15" width="4" height="1" fill="black"/>
<rect x="9" y="16" width="3" height="1" fill="black"/>
<rect x="17" y="16" width="4" height="1" fill="black"/>
<rect x="9" y="17" width="3" height="1" fill="black"/>
<rect x="17" y="17" width="3" height="1" fill="black"/>
<rect x="9" y="18" width="3" height="1" fill="black"/>
<rect x="17" y="18" width="3" height="1" fill="black"/>
<rect x="9" y="19" width="3" height="1" fill="black"/>
<rect x="17" y="19" width="3" height="1" fill="black"/>
<rect x="9" y="20" width="3" height="1" fill="black"/>
<rect x="17" y="20" width="3" height="1" fill="black"/>
<rect x="9" y="21" width="3" height="1" fill="black"/>
<rect x="17" y="21" width="3" height="1" fill="black"/>
<rect x="9" y="22" width="4" height="1" fill="black"/>
<rect x="16" y="22" width="11" height="1" fill="black"/>
<rect x="9" y="23" width="5" height="1" fill="black"/>
<rect x="16" y="23" width="11" height="1" fill="black"/>
<rect x="8" y="24" width="20" height="1" fill="black"/>
<rect x="0" y="25" width="21" height="1" fill="black"/>
<rect x="0" y="26" width="20" height="1" fill="black"/>
<rect x="0" y="27" width="13" height="1" fill="black"/>
<rect x="16" y="27" width="4" height="1" fill="black"/>
<rect x="0" y="28" width="4" height="1" fill="black"/>
<rect x="7" y="28" width="4" height="1" fill="black"/>
<rect x="17" y="28" width="3" height="1" fill="black"/>
<rect x="8" y="29" width="3" height="1" fill="black"/>
<rect x="16" y="29" width="4" height="1" fill="black"/>
<rect x="21" y="29" width="5" height="1" fill="black"/>
<rect x="8" y="30" width="3" height="1" fill="black"/>
<rect x="15" y="30" width="11" height="1" fill="black"/>
<rect x="7" y="31" width="19" height="1" fill="black"/>
<rect x="7" y="32" width="17" height="1" fill="black"/>
<rect x="0" y="33" width="20" height="1" fill="black"/>
<rect x="0" y="34" width="12" height="1" fill="black"/>
<rect x="14" y="34" width="5" height="1" fill="black"/>
<rect x="0" y="35" width="11" height="1" fill="black"/>
<rect x="15" y="35" width="4" height="1" fill="black"/>
<rect x="7" y="36" width="4" height="1" fill="black"/>
<rect x="16" y="36" width="3" height="1" fill="black"/>
<rect x="7" y="37" width="4" height="1" fill="black"/>
<rect x="16" y="37" width="3" height="1" fill="black"/>
<rect x="7" y="38" width="3" height="1" fill="black"/>
<rect x="16" y="38" width="3" height="1" fill="black"/>
<rect x="7" y="39" width="3" height="1" fill="black"/>
<rect x="15" y="39" width="4" height="1" fill="black"/>
<rect x="7" y="40" width="3" height="1" fill="black"/>
<rect x="15" y="40" width="4" height="1" fill="black"/>
<rect x="7" y="41" width="3" height="1" fill="black"/>
<rect x="14" y="41" width="5" height="1" fill="black"/>
<rect x="7" y="42" width="3" height="1" fill="black"/>
<rect x="14" y="42" width="4" height="1" fill="black"/>
<rect x="7" y="43" width="2" height="1" fill="black"/>
<rect x="14" y="43" width="4" height="1" fill="black"/>
<rect x="14" y="44" width="3" height="1" fill="black"/>
</svg>
