<svg xmlns="http://www.w3.org/2000/svg" width="15" height="69" viewBox="0 0 15 69" shape-rendering="crispEdges">
<rect x="6" y="22" width="2" height="1" fill="black"/>
<rect x="4" y="23" width="5" height="1" fill="black"/>
<rect x="3" y="24" width="6" height="1" fill="black"/>
<rect x="2" y="25" width="7" height="1" fill="black"/>
<rect x="1" y="26" width="8" height="1" fill="black"/>
<rect x="0" y="27" width="9" height="1" fill="black"/>
<rect x="0" y="28" width="9" height="1" fill="black"/>
<rect x="0" y="29" width="9" height="1" fill="black"/>
<rect x="0" y="30" width="4" height="1" fill="black"/>
<rect x="5" y="30" width="5" height="1" fill="black"/>
<rect x="0" y="31" width="3" height="1" fill="black"/>
<rect x="6" y="31" width="4" height="1" fill="black"/>
<rect x="6" y="32" width="4" height="1" fill="black"/>
<rect x="7" y="33" width="3" height="1" fill="black"/>
<rect x="7" y="34" width="3" height="1" fill="black"/>
<rect x="7" y="35" width="3" height="1" fill="black"/>
<rect x="7" y="36" width="3" height="1" fill="black"/>
<rect x="7" y="37" width="3" height="1" fill="black"/>
<rect x="7" y="38" width="3" height="1" fill="black"/>
<rect x="7" y="39" width="3" height="1" fill="black"/>
<rect x="7" y="40" width="3" height="1" fill="black"/>
<rect x="7" y="41" width="3" height="1" fill="black"/>
<rect x="7" y="42" width="3" height="1" fill="black"/>
<rect x="7" y="43" width="3" height="1" fill="black"/>
<rect x="7" y="44" width="3" height="1" fill="black"/>
<rect x="6" y="45" width="4" height="1" fill="black"/>
<rect x="0" y="46" width="15" height="1" fill="black"/>
<rect x="0" y="47" width="15" height="1" fill="black"/>
<rect x="0" y="48" width="15" height="1" fill="black"/>
</svg>
