<svg xmlns="http://www.w3.org/2000/svg" width="19" height="69" viewBox="0 0 19 69" shape-rendering="crispEdges">
<rect x="1" y="31" width="14" height="1" fill="black"/>
<rect x="0" y="32" width="16" height="1" fill="black"/>
<rect x="0" y="33" width="17" height="1" fill="black"/>
<rect x="0" y="34" width="7" height="1" fill="black"/>
<rect x="11" y="34" width="7" height="1" fill="black"/>
<rect x="0" y="35" width="5" height="1" fill="black"/>
<rect x="13" y="35" width="5" height="1" fill="black"/>
<rect x="0" y="36" width="3" height="1" fill="black"/>
<rect x="15" y="36" width="4" height="1" fill="black"/>
<rect x="0" y="37" width="3" height="1" fill="black"/>
<rect x="15" y="37" width="4" height="1" fill="black"/>
<rect x="0" y="38" width="3" height="1" fill="black"/>
<rect x="16" y="38" width="3" height="1" fill="black"/>
<rect x="0" y="39" width="3" height="1" fill="black"/>
<rect x="16" y="39" width="3" height="1" fill="black"/>
<rect x="0" y="40" width="3" height="1" fill="black"/>
<rect x="16" y="40" width="3" height="1" fill="black"/>
<rect x="0" y="41" width="3" height="1" fill="black"/>
<rect x="16" y="41" width="3" height="1" fill="black"/>
<rect x="0" y="42" width="3" height="1" fill="black"/>
<rect x="15" y="42" width="4" height="1" fill="black"/>
<rect x="0" y="43" width="3" height="1" fill="black"/>
<rect x="14" y="43" width="5" height="1" fill="black"/>
<rect x="0" y="44" width="3" height="1" fill="black"/>
<rect x="12" y="44" width="7" height="1" fill="black"/>
<rect x="0" y="45" width="18" height="1" fill="black"/>
<rect x="0" y="46" width="17" height="1" fill="black"/>
<rect x="0" y="47" width="16" height="1" fill="black"/>
<rect x="0" y="48" width="4" height="1" fill="black"/>
<rect x="0" y="49" width="3" height="1" fill="black"/>
<rect x="0" y="50" width="3" height="1" fill="black"/>
<rect x="0" y="51" width="3" height="1" fill="black"/>
<rect x="0" y="52" width="3" height="1" fill="black"/>
<rect x="0" y="53" width="3" height="1" fill="black"/>
<rect x="0" y="54" width="3" height="1" fill="black"/>
<rect x="0" y="55" width="3" height="1" fill="black"/>
<rect x="0" y="56" width="3" height="1" fill="black"/>
<rect x="0" y="57" width="3" height="1" fill="black"/>
<rect x="0" y="58" width="3" height="1" fill="black"/>
<rect x="0" y="59" width="3" height="1" fill="black"/>
<rect x="0" y="60" width="3" height="1" fill="black"/>
<rect x="0" y="61" width="3" height="1" fill="black"/>
</svg>
