<svg xmlns="http://www.w3.org/2000/svg" width="24" height="69" viewBox="0 0 24 69" shape-rendering="crispEdges">
<rect x="0" y="19" width="9" height="1" fill="black"/>
<rect x="19" y="19" width="4" height="1" fill="black"/>
<rect x="0" y="20" width="9" height="1" fill="black"/>
<rect x="18" y="20" width="5" height="1" fill="black"/>
<rect x="0" y="21" width="9" height="1" fill="black"/>
<rect x="17" y="21" width="6" height="1" fill="black"/>
<rect x="0" y="22" width="4" height="1" fill="black"/>
<rect x="5" y="22" width="4" height="1" fill="black"/>
<rect x="16" y="22" width="6" height="1" fill="black"/>
<rect x="0" y="23" width="3" height="1" fill="black"/>
<rect x="6" y="23" width="3" height="1" fill="black"/>
<rect x="15" y="23" width="6" height="1" fill="black"/>
<rect x="0" y="24" width="4" height="1" fill="black"/>
<rect x="5" y="24" width="4" height="1" fill="black"/>
<rect x="14" y="24" width="6" height="1" fill="black"/>
<rect x="0" y="25" width="9" height="1" fill="black"/>
<rect x="14" y="25" width="5" height="1" fill="black"/>
<rect x="0" y="26" width="9" height="1" fill="black"/>
<rect x="13" y="26" width="5" height="1" fill="black"/>
<rect x="1" y="27" width="7" height="1" fill="black"/>
<rect x="13" y="27" width="4" height="1" fill="black"/>
<rect x="12" y="28" width="5" height="1" fill="black"/>
<rect x="11" y="29" width="5" height="1" fill="black"/>
<rect x="10" y="30" width="5" height="1" fill="black"/>
<rect x="9" y="31" width="5" height="1" fill="black"/>
<rect x="15" y="31" width="8" height="1" fill="black"/>
<rect x="8" y="32" width="5" height="1" fill="black"/>
<rect x="14" y="32" width="10" height="1" fill="black"/>
<rect x="7" y="33" width="5" height="1" fill="black"/>
<rect x="14" y="33" width="10" height="1" fill="black"/>
<rect x="6" y="34" width="5" height="1" fill="black"/>
<rect x="13" y="34" width="11" height="1" fill="black"/>
<rect x="5" y="35" width="5" height="1" fill="black"/>
<rect x="12" y="35" width="6" height="1" fill="black"/>
<rect x="20" y="35" width="4" height="1" fill="black"/>
<rect x="5" y="36" width="4" height="1" fill="black"/>
<rect x="12" y="36" width="5" height="1" fill="black"/>
<rect x="20" y="36" width="4" height="1" fill="black"/>
<rect x="4" y="37" width="4" height="1" fill="black"/>
<rect x="12" y="37" width="4" height="1" fill="black"/>
<rect x="19" y="37" width="5" height="1" fill="black"/>
<rect x="3" y="38" width="5" height="1" fill="black"/>
<rect x="12" y="38" width="4" height="1" fill="black"/>
<rect x="17" y="38" width="7" height="1" fill="black"/>
<rect x="2" y="39" width="5" height="1" fill="black"/>
<rect x="12" y="39" width="11" height="1" fill="black"/>
<rect x="2" y="40" width="5" height="1" fill="black"/>
<rect x="12" y="40" width="10" height="1" fill="black"/>
<rect x="2" y="41" width="5" height="1" fill="black"/>
<rect x="12" y="41" width="9" height="1" fill="black"/>
</svg>
