<svg xmlns="http://www.w3.org/2000/svg" width="19" height="69" viewBox="0 0 19 69" shape-rendering="crispEdges">
<rect x="8" y="20" width="3" height="1" fill="black"/>
<rect x="8" y="21" width="3" height="1" fill="black"/>
<rect x="8" y="22" width="3" height="1" fill="black"/>
<rect x="8" y="23" width="3" height="1" fill="black"/>
<rect x="8" y="24" width="3" height="1" fill="black"/>
<rect x="7" y="25" width="4" height="1" fill="black"/>
<rect x="0" y="26" width="18" height="1" fill="black"/>
<rect x="0" y="27" width="19" height="1" fill="black"/>
<rect x="0" y="28" width="18" height="1" fill="black"/>
<rect x="6" y="29" width="6" height="1" fill="black"/>
<rect x="7" y="30" width="4" height="1" fill="black"/>
<rect x="8" y="31" width="3" height="1" fill="black"/>
<rect x="8" y="32" width="3" height="1" fill="black"/>
<rect x="8" y="33" width="3" height="1" fill="black"/>
<rect x="8" y="34" width="3" height="1" fill="black"/>
<rect x="8" y="35" width="3" height="1" fill="black"/>
<rect x="8" y="36" width="3" height="1" fill="black"/>
</svg>
