<svg xmlns="http://www.w3.org/2000/svg" width="19" height="69" viewBox="0 0 19 69" shape-rendering="crispEdges">
<rect x="4" y="19" width="12" height="1" fill="black"/>
<rect x="2" y="20" width="15" height="1" fill="black"/>
<rect x="0" y="21" width="19" height="1" fill="black"/>
<rect x="0" y="22" width="7" height="1" fill="black"/>
<rect x="12" y="22" width="7" height="1" fill="black"/>
<rect x="0" y="23" width="6" height="1" fill="black"/>
<rect x="14" y="23" width="5" height="1" fill="black"/>
<rect x="0" y="24" width="5" height="1" fill="black"/>
<rect x="15" y="24" width="4" height="1" fill="black"/>
<rect x="0" y="25" width="4" height="1" fill="black"/>
<rect x="16" y="25" width="3" height="1" fill="black"/>
<rect x="16" y="26" width="3" height="1" fill="black"/>
<rect x="15" y="27" width="4" height="1" fill="black"/>
<rect x="14" y="28" width="5" height="1" fill="black"/>
<rect x="12" y="29" width="7" height="1" fill="black"/>
<rect x="7" y="30" width="12" height="1" fill="black"/>
<rect x="5" y="31" width="12" height="1" fill="black"/>
<rect x="5" y="32" width="10" height="1" fill="black"/>
<rect x="5" y="33" width="8" height="1" fill="black"/>
<rect x="5" y="34" width="5" height="1" fill="black"/>
<rect x="5" y="35" width="3" height="1" fill="black"/>
<rect x="5" y="36" width="3" height="1" fill="black"/>
<rect x="5" y="37" width="3" height="1" fill="black"/>
<rect x="5" y="38" width="3" height="1" fill="black"/>
<rect x="5" y="39" width="3" height="1" fill="black"/>
<rect x="5" y="44" width="4" height="1" fill="black"/>
<rect x="5" y="45" width="4" height="1" fill="black"/>
<rect x="5" y="46" width="4" height="1" fill="black"/>
<rect x="5" y="47" width="4" height="1" fill="black"/>
<rect x="5" y="48" width="4" height="1" fill="black"/>
<rect x="5" y="49" width="3" height="1" fill="black"/>
</svg>
