<svg xmlns="http://www.w3.org/2000/svg" width="10" height="69" viewBox="0 0 10 69" shape-rendering="crispEdges">
<rect x="1" y="17" width="3" height="1" fill="black"/>
<rect x="7" y="17" width="3" height="1" fill="black"/>
<rect x="1" y="18" width="3" height="1" fill="black"/>
<rect x="6" y="18" width="4" height="1" fill="black"/>
<rect x="1" y="19" width="3" height="1" fill="black"/>
<rect x="6" y="19" width="4" height="1" fill="black"/>
<rect x="0" y="20" width="4" height="1" fill="black"/>
<rect x="5" y="20" width="5" height="1" fill="black"/>
<rect x="0" y="21" width="4" height="1" fill="black"/>
<rect x="5" y="21" width="4" height="1" fill="black"/>
<rect x="0" y="22" width="4" height="1" fill="black"/>
<rect x="5" y="22" width="4" height="1" fill="black"/>
<rect x="0" y="23" width="4" height="1" fill="black"/>
<rect x="5" y="23" width="4" height="1" fill="black"/>
<rect x="0" y="24" width="3" height="1" fill="black"/>
<rect x="5" y="24" width="3" height="1" fill="black"/>
<rect x="0" y="25" width="2" height="1" fill="black"/>
<rect x="5" y="25" width="2" height="1" fill="black"/>
</svg>
