<svg xmlns="http://www.w3.org/2000/svg" width="15" height="69" viewBox="0 0 15 69" shape-rendering="crispEdges">
<rect x="0" y="29" width="4" height="1" fill="black"/>
<rect x="0" y="30" width="4" height="1" fill="black"/>
<rect x="6" y="30" width="8" height="1" fill="black"/>
<rect x="0" y="31" width="15" height="1" fill="black"/>
<rect x="0" y="32" width="15" height="1" fill="black"/>
<rect x="0" y="33" width="9" height="1" fill="black"/>
<rect x="11" y="33" width="4" height="1" fill="black"/>
<rect x="0" y="34" width="7" height="1" fill="black"/>
<rect x="12" y="34" width="3" height="1" fill="black"/>
<rect x="0" y="35" width="6" height="1" fill="black"/>
<rect x="0" y="36" width="5" height="1" fill="black"/>
<rect x="0" y="37" width="4" height="1" fill="black"/>
<rect x="0" y="38" width="4" height="1" fill="black"/>
<rect x="0" y="39" width="4" height="1" fill="black"/>
<rect x="0" y="40" width="4" height="1" fill="black"/>
<rect x="0" y="41" width="4" height="1" fill="black"/>
<rect x="0" y="42" width="4" height="1" fill="black"/>
<rect x="0" y="43" width="4" height="1" fill="black"/>
<rect x="1" y="44" width="3" height="1" fill="black"/>
<rect x="1" y="45" width="3" height="1" fill="black"/>
<rect x="1" y="46" width="3" height="1" fill="black"/>
<rect x="1" y="47" width="3" height="1" fill="black"/>
<rect x="1" y="48" width="2" height="1" fill="black"/>
</svg>
