<svg xmlns="http://www.w3.org/2000/svg" width="5" height="69" viewBox="0 0 5 69" shape-rendering="crispEdges">
<rect x="0" y="35" width="3" height="1" fill="black"/>
<rect x="0" y="36" width="4" height="1" fill="black"/>
<rect x="0" y="37" width="4" height="1" fill="black"/>
<rect x="0" y="38" width="4" height="1" fill="black"/>
<rect x="0" y="45" width="3" height="1" fill="black"/>
<rect x="0" y="46" width="4" height="1" fill="black"/>
<rect x="0" y="47" width="4" height="1" fill="black"/>
<rect x="0" y="48" width="4" height="1" fill="black"/>
<rect x="0" y="49" width="5" height="1" fill="black"/>
<rect x="0" y="50" width="5" height="1" fill="black"/>
<rect x="1" y="51" width="4" height="1" fill="black"/>
<rect x="0" y="52" width="5" height="1" fill="black"/>
<rect x="0" y="53" width="4" height="1" fill="black"/>
<rect x="0" y="54" width="4" height="1" fill="black"/>
<rect x="0" y="55" width="4" height="1" fill="black"/>
<rect x="0" y="56" width="3" height="1" fill="black"/>
</svg>
