<svg xmlns="http://www.w3.org/2000/svg" width="17" height="69" viewBox="0 0 17 69" shape-rendering="crispEdges">
<rect x="0" y="22" width="17" height="1" fill="black"/>
<rect x="0" y="23" width="17" height="1" fill="black"/>
<rect x="0" y="24" width="17" height="1" fill="black"/>
<rect x="0" y="25" width="4" height="1" fill="black"/>
<rect x="11" y="25" width="6" height="1" fill="black"/>
<rect x="0" y="26" width="3" height="1" fill="black"/>
<rect x="12" y="26" width="5" height="1" fill="black"/>
<rect x="0" y="27" width="3" height="1" fill="black"/>
<rect x="11" y="27" width="5" height="1" fill="black"/>
<rect x="0" y="28" width="3" height="1" fill="black"/>
<rect x="11" y="28" width="5" height="1" fill="black"/>
<rect x="0" y="29" width="3" height="1" fill="black"/>
<rect x="11" y="29" width="4" height="1" fill="black"/>
<rect x="0" y="30" width="3" height="1" fill="black"/>
<rect x="11" y="30" width="3" height="1" fill="black"/>
<rect x="0" y="31" width="3" height="1" fill="black"/>
<rect x="10" y="31" width="4" height="1" fill="black"/>
<rect x="10" y="32" width="4" height="1" fill="black"/>
<rect x="10" y="33" width="3" height="1" fill="black"/>
<rect x="10" y="34" width="3" height="1" fill="black"/>
<rect x="9" y="35" width="4" height="1" fill="black"/>
<rect x="9" y="36" width="4" height="1" fill="black"/>
<rect x="9" y="37" width="4" height="1" fill="black"/>
<rect x="9" y="38" width="3" height="1" fill="black"/>
<rect x="9" y="39" width="3" height="1" fill="black"/>
<rect x="8" y="40" width="4" height="1" fill="black"/>
<rect x="7" y="41" width="5" height="1" fill="black"/>
<rect x="7" y="42" width="5" height="1" fill="black"/>
<rect x="7" y="43" width="4" height="1" fill="black"/>
<rect x="7" y="44" width="3" height="1" fill="black"/>
<rect x="7" y="45" width="3" height="1" fill="black"/>
<rect x="7" y="46" width="3" height="1" fill="black"/>
<rect x="7" y="47" width="3" height="1" fill="black"/>
<rect x="7" y="48" width="3" height="1" fill="black"/>
<rect x="7" y="49" width="3" height="1" fill="black"/>
<rect x="7" y="50" width="3" height="1" fill="black"/>
</svg>
