<svg xmlns="http://www.w3.org/2000/svg" width="19" height="69" viewBox="0 0 19 69" shape-rendering="crispEdges">
<rect x="9" y="20" width="4" height="1" fill="black"/>
<rect x="8" y="21" width="6" height="1" fill="black"/>
<rect x="7" y="22" width="7" height="1" fill="black"/>
<rect x="6" y="23" width="8" height="1" fill="black"/>
<rect x="6" y="24" width="8" height="1" fill="black"/>
<rect x="5" y="25" width="6" height="1" fill="black"/>
<rect x="4" y="26" width="6" height="1" fill="black"/>
<rect x="3" y="27" width="6" height="1" fill="black"/>
<rect x="3" y="28" width="5" height="1" fill="black"/>
<rect x="2" y="29" width="5" height="1" fill="black"/>
<rect x="1" y="30" width="6" height="1" fill="black"/>
<rect x="1" y="31" width="5" height="1" fill="black"/>
<rect x="1" y="32" width="5" height="1" fill="black"/>
<rect x="1" y="33" width="4" height="1" fill="black"/>
<rect x="0" y="34" width="4" height="1" fill="black"/>
<rect x="0" y="35" width="4" height="1" fill="black"/>
<rect x="0" y="36" width="3" height="1" fill="black"/>
<rect x="0" y="37" width="3" height="1" fill="black"/>
<rect x="8" y="37" width="9" height="1" fill="black"/>
<rect x="0" y="38" width="3" height="1" fill="black"/>
<rect x="6" y="38" width="12" height="1" fill="black"/>
<rect x="0" y="39" width="3" height="1" fill="black"/>
<rect x="6" y="39" width="13" height="1" fill="black"/>
<rect x="0" y="40" width="3" height="1" fill="black"/>
<rect x="5" y="40" width="6" height="1" fill="black"/>
<rect x="15" y="40" width="4" height="1" fill="black"/>
<rect x="0" y="41" width="3" height="1" fill="black"/>
<rect x="5" y="41" width="5" height="1" fill="black"/>
<rect x="16" y="41" width="3" height="1" fill="black"/>
<rect x="0" y="42" width="3" height="1" fill="black"/>
<rect x="4" y="42" width="5" height="1" fill="black"/>
<rect x="16" y="42" width="3" height="1" fill="black"/>
<rect x="0" y="43" width="8" height="1" fill="black"/>
<rect x="16" y="43" width="3" height="1" fill="black"/>
<rect x="0" y="44" width="8" height="1" fill="black"/>
<rect x="15" y="44" width="4" height="1" fill="black"/>
<rect x="0" y="45" width="7" height="1" fill="black"/>
<rect x="14" y="45" width="5" height="1" fill="black"/>
<rect x="0" y="46" width="7" height="1" fill="black"/>
<rect x="13" y="46" width="6" height="1" fill="black"/>
<rect x="1" y="47" width="7" height="1" fill="black"/>
<rect x="12" y="47" width="6" height="1" fill="black"/>
<rect x="1" y="48" width="17" height="1" fill="black"/>
<rect x="2" y="49" width="15" height="1" fill="black"/>
<rect x="4" y="50" width="12" height="1" fill="black"/>
</svg>
