<svg xmlns="http://www.w3.org/2000/svg" width="18" height="69" viewBox="0 0 18 69" shape-rendering="crispEdges">
<rect x="7" y="21" width="3" height="1" fill="black"/>
<rect x="7" y="22" width="3" height="1" fill="black"/>
<rect x="7" y="23" width="3" height="1" fill="black"/>
<rect x="7" y="24" width="3" height="1" fill="black"/>
<rect x="7" y="25" width="3" height="1" fill="black"/>
<rect x="7" y="26" width="3" height="1" fill="black"/>
<rect x="6" y="27" width="4" height="1" fill="black"/>
<rect x="6" y="28" width="4" height="1" fill="black"/>
<rect x="6" y="29" width="3" height="1" fill="black"/>
<rect x="6" y="30" width="3" height="1" fill="black"/>
<rect x="5" y="31" width="4" height="1" fill="black"/>
<rect x="1" y="32" width="13" height="1" fill="black"/>
<rect x="1" y="33" width="13" height="1" fill="black"/>
<rect x="1" y="34" width="13" height="1" fill="black"/>
<rect x="4" y="35" width="6" height="1" fill="black"/>
<rect x="5" y="36" width="4" height="1" fill="black"/>
<rect x="6" y="37" width="3" height="1" fill="black"/>
<rect x="6" y="38" width="3" height="1" fill="black"/>
<rect x="6" y="39" width="3" height="1" fill="black"/>
<rect x="6" y="40" width="3" height="1" fill="black"/>
<rect x="6" y="41" width="3" height="1" fill="black"/>
<rect x="6" y="42" width="3" height="1" fill="black"/>
<rect x="6" y="43" width="3" height="1" fill="black"/>
<rect x="16" y="43" width="1" height="1" fill="black"/>
<rect x="6" y="44" width="4" height="1" fill="black"/>
<rect x="14" y="44" width="4" height="1" fill="black"/>
<rect x="6" y="45" width="6" height="1" fill="black"/>
<rect x="13" y="45" width="5" height="1" fill="black"/>
<rect x="6" y="46" width="12" height="1" fill="black"/>
<rect x="7" y="47" width="11" height="1" fill="black"/>
<rect x="9" y="48" width="7" height="1" fill="black"/>
</svg>
