<svg xmlns="http://www.w3.org/2000/svg" width="20" height="69" viewBox="0 0 20 69" shape-rendering="crispEdges">
<rect x="6" y="23" width="9" height="1" fill="black"/>
<rect x="3" y="24" width="14" height="1" fill="black"/>
<rect x="3" y="25" width="15" height="1" fill="black"/>
<rect x="2" y="26" width="7" height="1" fill="black"/>
<rect x="12" y="26" width="6" height="1" fill="black"/>
<rect x="2" y="27" width="5" height="1" fill="black"/>
<rect x="14" y="27" width="5" height="1" fill="black"/>
<rect x="2" y="28" width="4" height="1" fill="black"/>
<rect x="14" y="28" width="5" height="1" fill="black"/>
<rect x="2" y="29" width="3" height="1" fill="black"/>
<rect x="15" y="29" width="4" height="1" fill="black"/>
<rect x="2" y="30" width="3" height="1" fill="black"/>
<rect x="15" y="30" width="4" height="1" fill="black"/>
<rect x="16" y="31" width="3" height="1" fill="black"/>
<rect x="15" y="32" width="4" height="1" fill="black"/>
<rect x="14" y="33" width="5" height="1" fill="black"/>
<rect x="14" y="34" width="5" height="1" fill="black"/>
<rect x="13" y="35" width="5" height="1" fill="black"/>
<rect x="12" y="36" width="6" height="1" fill="black"/>
<rect x="12" y="37" width="5" height="1" fill="black"/>
<rect x="11" y="38" width="5" height="1" fill="black"/>
<rect x="11" y="39" width="4" height="1" fill="black"/>
<rect x="10" y="40" width="5" height="1" fill="black"/>
<rect x="9" y="41" width="5" height="1" fill="black"/>
<rect x="8" y="42" width="5" height="1" fill="black"/>
<rect x="6" y="43" width="6" height="1" fill="black"/>
<rect x="5" y="44" width="6" height="1" fill="black"/>
<rect x="4" y="45" width="6" height="1" fill="black"/>
<rect x="2" y="46" width="7" height="1" fill="black"/>
<rect x="1" y="47" width="7" height="1" fill="black"/>
<rect x="1" y="48" width="19" height="1" fill="black"/>
<rect x="0" y="49" width="20" height="1" fill="black"/>
<rect x="0" y="50" width="20" height="1" fill="black"/>
</svg>
