<svg xmlns="http://www.w3.org/2000/svg" width="18" height="69" viewBox="0 0 18 69" shape-rendering="crispEdges">
<rect x="0" y="28" width="3" height="1" fill="black"/>
<rect x="12" y="28" width="3" height="1" fill="black"/>
<rect x="0" y="29" width="3" height="1" fill="black"/>
<rect x="12" y="29" width="3" height="1" fill="black"/>
<rect x="0" y="30" width="3" height="1" fill="black"/>
<rect x="12" y="30" width="4" height="1" fill="black"/>
<rect x="0" y="31" width="3" height="1" fill="black"/>
<rect x="12" y="31" width="4" height="1" fill="black"/>
<rect x="0" y="32" width="3" height="1" fill="black"/>
<rect x="12" y="32" width="5" height="1" fill="black"/>
<rect x="0" y="33" width="3" height="1" fill="black"/>
<rect x="12" y="33" width="5" height="1" fill="black"/>
<rect x="0" y="34" width="3" height="1" fill="black"/>
<rect x="12" y="34" width="5" height="1" fill="black"/>
<rect x="0" y="35" width="3" height="1" fill="black"/>
<rect x="12" y="35" width="5" height="1" fill="black"/>
<rect x="0" y="36" width="3" height="1" fill="black"/>
<rect x="11" y="36" width="6" height="1" fill="black"/>
<rect x="0" y="37" width="3" height="1" fill="black"/>
<rect x="11" y="37" width="6" height="1" fill="black"/>
<rect x="0" y="38" width="3" height="1" fill="black"/>
<rect x="11" y="38" width="6" height="1" fill="black"/>
<rect x="0" y="39" width="3" height="1" fill="black"/>
<rect x="11" y="39" width="7" height="1" fill="black"/>
<rect x="0" y="40" width="3" height="1" fill="black"/>
<rect x="10" y="40" width="8" height="1" fill="black"/>
<rect x="0" y="41" width="4" height="1" fill="black"/>
<rect x="9" y="41" width="9" height="1" fill="black"/>
<rect x="0" y="42" width="5" height="1" fill="black"/>
<rect x="8" y="42" width="5" height="1" fill="black"/>
<rect x="15" y="42" width="3" height="1" fill="black"/>
<rect x="0" y="43" width="6" height="1" fill="black"/>
<rect x="7" y="43" width="6" height="1" fill="black"/>
<rect x="15" y="43" width="3" height="1" fill="black"/>
<rect x="0" y="44" width="13" height="1" fill="black"/>
<rect x="15" y="44" width="3" height="1" fill="black"/>
<rect x="1" y="45" width="11" height="1" fill="black"/>
<rect x="15" y="45" width="3" height="1" fill="black"/>
<rect x="2" y="46" width="8" height="1" fill="black"/>
<rect x="15" y="46" width="3" height="1" fill="black"/>
</svg>
