<svg xmlns="http://www.w3.org/2000/svg" width="19" height="69" viewBox="0 0 19 69" shape-rendering="crispEdges">
<rect x="0" y="14" width="19" height="1" fill="black"/>
<rect x="0" y="15" width="19" height="1" fill="black"/>
<rect x="0" y="16" width="19" height="1" fill="black"/>
<rect x="0" y="17" width="5" height="1" fill="black"/>
<rect x="14" y="17" width="5" height="1" fill="black"/>
<rect x="0" y="18" width="5" height="1" fill="black"/>
<rect x="14" y="18" width="5" height="1" fill="black"/>
<rect x="0" y="19" width="5" height="1" fill="black"/>
<rect x="14" y="19" width="5" height="1" fill="black"/>
<rect x="0" y="20" width="5" height="1" fill="black"/>
<rect x="14" y="20" width="5" height="1" fill="black"/>
<rect x="0" y="21" width="5" height="1" fill="black"/>
<rect x="14" y="21" width="5" height="1" fill="black"/>
<rect x="0" y="22" width="5" height="1" fill="black"/>
<rect x="14" y="22" width="5" height="1" fill="black"/>
<rect x="0" y="23" width="5" height="1" fill="black"/>
<rect x="14" y="23" width="5" height="1" fill="black"/>
<rect x="0" y="24" width="5" height="1" fill="black"/>
<rect x="14" y="24" width="5" height="1" fill="black"/>
<rect x="0" y="25" width="5" height="1" fill="black"/>
<rect x="14" y="25" width="5" height="1" fill="black"/>
<rect x="0" y="26" width="5" height="1" fill="black"/>
<rect x="14" y="26" width="5" height="1" fill="black"/>
<rect x="0" y="27" width="5" height="1" fill="black"/>
<rect x="14" y="27" width="5" height="1" fill="black"/>
<rect x="0" y="28" width="5" height="1" fill="black"/>
<rect x="14" y="28" width="5" height="1" fill="black"/>
<rect x="0" y="29" width="5" height="1" fill="black"/>
<rect x="14" y="29" width="5" height="1" fill="black"/>
<rect x="0" y="30" width="5" height="1" fill="black"/>
<rect x="14" y="30" width="5" height="1" fill="black"/>
<rect x="0" y="31" width="5" height="1" fill="black"/>
<rect x="14" y="31" width="5" height="1" fill="black"/>
<rect x="0" y="32" width="5" height="1" fill="black"/>
<rect x="14" y="32" width="5" height="1" fill="black"/>
<rect x="0" y="33" width="5" height="1" fill="black"/>
<rect x="14" y="33" width="5" height="1" fill="black"/>
<rect x="0" y="34" width="5" height="1" fill="black"/>
<rect x="14" y="34" width="5" height="1" fill="black"/>
<rect x="0" y="35" width="5" height="1" fill="black"/>
<rect x="14" y="35" width="5" height="1" fill="black"/>
<rect x="0" y="36" width="5" height="1" fill="black"/>
<rect x="14" y="36" width="5" height="1" fill="black"/>
<rect x="0" y="37" width="5" height="1" fill="black"/>
<rect x="14" y="37" width="5" height="1" fill="black"/>
<rect x="0" y="38" width="5" height="1" fill="black"/>
<rect x="14" y="38" width="5" height="1" fill="black"/>
<rect x="0" y="39" width="5" height="1" fill="black"/>
<rect x="14" y="39" width="5" height="1" fill="black"/>
<rect x="0" y="40" width="5" height="1" fill="black"/>
<rect x="14" y="40" width="5" height="1" fill="black"/>
<rect x="0" y="41" width="5" height="1" fill="black"/>
<rect x="14" y="41" width="5" height="1" fill="black"/>
<rect x="0" y="42" width="5" height="1" fill="black"/>
<rect x="14" y="42" width="5" height="1" fill="black"/>
<rect x="0" y="43" width="5" height="1" fill="black"/>
<rect x="14" y="43" width="5" height="1" fill="black"/>
<rect x="0" y="44" width="5" height="1" fill="black"/>
<rect x="14" y="44" width="5" height="1" fill="black"/>
<rect x="0" y="45" width="5" height="1" fill="black"/>
<rect x="14" y="45" width="5" height="1" fill="black"/>
<rect x="0" y="46" width="5" height="1" fill="black"/>
<rect x="14" y="46" width="5" height="1" fill="black"/>
<rect x="0" y="47" width="19" height="1" fill="black"/>
<rect x="0" y="48" width="19" height="1" fill="black"/>
<rect x="0" y="49" width="19" height="1" fill="black"/>
</svg>
