<svg xmlns="http://www.w3.org/2000/svg" width="28" height="69" viewBox="0 0 28 69" shape-rendering="crispEdges">
<rect x="0" y="29" width="3" height="1" fill="black"/>
<rect x="0" y="30" width="3" height="1" fill="black"/>
<rect x="25" y="30" width="3" height="1" fill="black"/>
<rect x="0" y="31" width="3" height="1" fill="black"/>
<rect x="24" y="31" width="4" height="1" fill="black"/>
<rect x="0" y="32" width="4" height="1" fill="black"/>
<rect x="24" y="32" width="4" height="1" fill="black"/>
<rect x="0" y="33" width="4" height="1" fill="black"/>
<rect x="23" y="33" width="5" height="1" fill="black"/>
<rect x="0" y="34" width="4" height="1" fill="black"/>
<rect x="23" y="34" width="5" height="1" fill="black"/>
<rect x="1" y="35" width="3" height="1" fill="black"/>
<rect x="12" y="35" width="3" height="1" fill="black"/>
<rect x="22" y="35" width="6" height="1" fill="black"/>
<rect x="1" y="36" width="3" height="1" fill="black"/>
<rect x="11" y="36" width="4" height="1" fill="black"/>
<rect x="22" y="36" width="5" height="1" fill="black"/>
<rect x="1" y="37" width="3" height="1" fill="black"/>
<rect x="11" y="37" width="5" height="1" fill="black"/>
<rect x="21" y="37" width="5" height="1" fill="black"/>
<rect x="1" y="38" width="4" height="1" fill="black"/>
<rect x="10" y="38" width="6" height="1" fill="black"/>
<rect x="21" y="38" width="4" height="1" fill="black"/>
<rect x="1" y="39" width="4" height="1" fill="black"/>
<rect x="9" y="39" width="7" height="1" fill="black"/>
<rect x="20" y="39" width="5" height="1" fill="black"/>
<rect x="2" y="40" width="3" height="1" fill="black"/>
<rect x="8" y="40" width="9" height="1" fill="black"/>
<rect x="20" y="40" width="4" height="1" fill="black"/>
<rect x="2" y="41" width="3" height="1" fill="black"/>
<rect x="7" y="41" width="10" height="1" fill="black"/>
<rect x="19" y="41" width="5" height="1" fill="black"/>
<rect x="2" y="42" width="3" height="1" fill="black"/>
<rect x="6" y="42" width="6" height="1" fill="black"/>
<rect x="13" y="42" width="10" height="1" fill="black"/>
<rect x="2" y="43" width="9" height="1" fill="black"/>
<rect x="14" y="43" width="9" height="1" fill="black"/>
<rect x="2" y="44" width="8" height="1" fill="black"/>
<rect x="15" y="44" width="7" height="1" fill="black"/>
<rect x="2" y="45" width="7" height="1" fill="black"/>
<rect x="15" y="45" width="7" height="1" fill="black"/>
<rect x="3" y="46" width="5" height="1" fill="black"/>
<rect x="16" y="46" width="5" height="1" fill="black"/>
<rect x="3" y="47" width="5" height="1" fill="black"/>
<rect x="16" y="47" width="5" height="1" fill="black"/>
</svg>
