<svg xmlns="http://www.w3.org/2000/svg" width="20" height="69" viewBox="0 0 20 69" shape-rendering="crispEdges">
<rect x="3" y="31" width="3" height="1" fill="black"/>
<rect x="3" y="32" width="3" height="1" fill="black"/>
<rect x="15" y="32" width="3" height="1" fill="black"/>
<rect x="3" y="33" width="4" height="1" fill="black"/>
<rect x="15" y="33" width="3" height="1" fill="black"/>
<rect x="3" y="34" width="5" height="1" fill="black"/>
<rect x="14" y="34" width="4" height="1" fill="black"/>
<rect x="3" y="35" width="6" height="1" fill="black"/>
<rect x="13" y="35" width="5" height="1" fill="black"/>
<rect x="4" y="36" width="6" height="1" fill="black"/>
<rect x="12" y="36" width="6" height="1" fill="black"/>
<rect x="5" y="37" width="5" height="1" fill="black"/>
<rect x="11" y="37" width="6" height="1" fill="black"/>
<rect x="6" y="38" width="10" height="1" fill="black"/>
<rect x="6" y="39" width="9" height="1" fill="black"/>
<rect x="7" y="40" width="7" height="1" fill="black"/>
<rect x="7" y="41" width="6" height="1" fill="black"/>
<rect x="6" y="42" width="7" height="1" fill="black"/>
<rect x="4" y="43" width="10" height="1" fill="black"/>
<rect x="3" y="44" width="12" height="1" fill="black"/>
<rect x="2" y="45" width="7" height="1" fill="black"/>
<rect x="11" y="45" width="5" height="1" fill="black"/>
<rect x="1" y="46" width="6" height="1" fill="black"/>
<rect x="12" y="46" width="5" height="1" fill="black"/>
<rect x="0" y="47" width="6" height="1" fill="black"/>
<rect x="12" y="47" width="6" height="1" fill="black"/>
<rect x="0" y="48" width="6" height="1" fill="black"/>
<rect x="13" y="48" width="6" height="1" fill="black"/>
<rect x="0" y="49" width="4" height="1" fill="black"/>
<rect x="14" y="49" width="6" height="1" fill="black"/>
<rect x="15" y="50" width="5" height="1" fill="black"/>
</svg>
