<svg xmlns="http://www.w3.org/2000/svg" width="18" height="69" viewBox="0 0 18 69" shape-rendering="crispEdges">
<rect x="0" y="32" width="4" height="1" fill="black"/>
<rect x="0" y="33" width="4" height="1" fill="black"/>
<rect x="15" y="33" width="3" height="1" fill="black"/>
<rect x="0" y="34" width="4" height="1" fill="black"/>
<rect x="15" y="34" width="3" height="1" fill="black"/>
<rect x="0" y="35" width="3" height="1" fill="black"/>
<rect x="15" y="35" width="3" height="1" fill="black"/>
<rect x="0" y="36" width="3" height="1" fill="black"/>
<rect x="15" y="36" width="3" height="1" fill="black"/>
<rect x="0" y="37" width="3" height="1" fill="black"/>
<rect x="15" y="37" width="3" height="1" fill="black"/>
<rect x="0" y="38" width="3" height="1" fill="black"/>
<rect x="15" y="38" width="3" height="1" fill="black"/>
<rect x="0" y="39" width="3" height="1" fill="black"/>
<rect x="15" y="39" width="3" height="1" fill="black"/>
<rect x="0" y="40" width="4" height="1" fill="black"/>
<rect x="15" y="40" width="3" height="1" fill="black"/>
<rect x="0" y="41" width="4" height="1" fill="black"/>
<rect x="15" y="41" width="3" height="1" fill="black"/>
<rect x="0" y="42" width="4" height="1" fill="black"/>
<rect x="15" y="42" width="3" height="1" fill="black"/>
<rect x="1" y="43" width="3" height="1" fill="black"/>
<rect x="14" y="43" width="4" height="1" fill="black"/>
<rect x="1" y="44" width="4" height="1" fill="black"/>
<rect x="14" y="44" width="4" height="1" fill="black"/>
<rect x="1" y="45" width="4" height="1" fill="black"/>
<rect x="13" y="45" width="5" height="1" fill="black"/>
<rect x="1" y="46" width="5" height="1" fill="black"/>
<rect x="13" y="46" width="5" height="1" fill="black"/>
<rect x="1" y="47" width="6" height="1" fill="black"/>
<rect x="12" y="47" width="6" height="1" fill="black"/>
<rect x="2" y="48" width="16" height="1" fill="black"/>
<rect x="2" y="49" width="16" height="1" fill="black"/>
<rect x="4" y="50" width="14" height="1" fill="black"/>
<rect x="14" y="51" width="4" height="1" fill="black"/>
<rect x="14" y="52" width="4" height="1" fill="black"/>
<rect x="14" y="53" width="4" height="1" fill="black"/>
<rect x="14" y="54" width="3" height="1" fill="black"/>
<rect x="14" y="55" width="3" height="1" fill="black"/>
<rect x="14" y="56" width="3" height="1" fill="black"/>
<rect x="2" y="57" width="3" height="1" fill="black"/>
<rect x="14" y="57" width="3" height="1" fill="black"/>
<rect x="2" y="58" width="4" height="1" fill="black"/>
<rect x="13" y="58" width="4" height="1" fill="black"/>
<rect x="2" y="59" width="4" height="1" fill="black"/>
<rect x="13" y="59" width="4" height="1" fill="black"/>
<rect x="2" y="60" width="5" height="1" fill="black"/>
<rect x="12" y="60" width="5" height="1" fill="black"/>
<rect x="2" y="61" width="5" height="1" fill="black"/>
<rect x="8" y="61" width="8" height="1" fill="black"/>
<rect x="2" y="62" width="13" height="1" fill="black"/>
<rect x="3" y="63" width="12" height="1" fill="black"/>
<rect x="4" y="64" width="8" height="1" fill="black"/>
</svg>
