<svg xmlns="http://www.w3.org/2000/svg" width="22" height="69" viewBox="0 0 22 69" shape-rendering="crispEdges">
<rect x="1" y="32" width="17" height="1" fill="black"/>
<rect x="1" y="33" width="17" height="1" fill="black"/>
<rect x="1" y="34" width="17" height="1" fill="black"/>
<rect x="12" y="35" width="5" height="1" fill="black"/>
<rect x="12" y="36" width="5" height="1" fill="black"/>
<rect x="11" y="37" width="5" height="1" fill="black"/>
<rect x="10" y="38" width="5" height="1" fill="black"/>
<rect x="10" y="39" width="5" height="1" fill="black"/>
<rect x="9" y="40" width="5" height="1" fill="black"/>
<rect x="8" y="41" width="6" height="1" fill="black"/>
<rect x="7" y="42" width="6" height="1" fill="black"/>
<rect x="7" y="43" width="5" height="1" fill="black"/>
<rect x="5" y="44" width="7" height="1" fill="black"/>
<rect x="4" y="45" width="7" height="1" fill="black"/>
<rect x="3" y="46" width="7" height="1" fill="black"/>
<rect x="2" y="47" width="7" height="1" fill="black"/>
<rect x="0" y="48" width="22" height="1" fill="black"/>
<rect x="0" y="49" width="22" height="1" fill="black"/>
<rect x="0" y="50" width="22" height="1" fill="black"/>
<rect x="0" y="51" width="9" height="1" fill="black"/>
<rect x="0" y="52" width="8" height="1" fill="black"/>
</svg>
