<svg xmlns="http://www.w3.org/2000/svg" width="23" height="69" viewBox="0 0 23 69" shape-rendering="crispEdges">
<rect x="7" y="24" width="11" height="1" fill="black"/>
<rect x="6" y="25" width="13" height="1" fill="black"/>
<rect x="5" y="26" width="15" height="1" fill="black"/>
<rect x="4" y="27" width="6" height="1" fill="black"/>
<rect x="11" y="27" width="10" height="1" fill="black"/>
<rect x="3" y="28" width="6" height="1" fill="black"/>
<rect x="13" y="28" width="8" height="1" fill="black"/>
<rect x="2" y="29" width="6" height="1" fill="black"/>
<rect x="17" y="29" width="5" height="1" fill="black"/>
<rect x="2" y="30" width="5" height="1" fill="black"/>
<rect x="16" y="30" width="6" height="1" fill="black"/>
<rect x="2" y="31" width="5" height="1" fill="black"/>
<rect x="15" y="31" width="8" height="1" fill="black"/>
<rect x="1" y="32" width="5" height="1" fill="black"/>
<rect x="15" y="32" width="8" height="1" fill="black"/>
<rect x="1" y="33" width="4" height="1" fill="black"/>
<rect x="14" y="33" width="9" height="1" fill="black"/>
<rect x="1" y="34" width="3" height="1" fill="black"/>
<rect x="14" y="34" width="9" height="1" fill="black"/>
<rect x="0" y="35" width="4" height="1" fill="black"/>
<rect x="13" y="35" width="5" height="1" fill="black"/>
<rect x="20" y="35" width="3" height="1" fill="black"/>
<rect x="0" y="36" width="4" height="1" fill="black"/>
<rect x="12" y="36" width="5" height="1" fill="black"/>
<rect x="20" y="36" width="3" height="1" fill="black"/>
<rect x="0" y="37" width="4" height="1" fill="black"/>
<rect x="12" y="37" width="4" height="1" fill="black"/>
<rect x="20" y="37" width="3" height="1" fill="black"/>
<rect x="0" y="38" width="4" height="1" fill="black"/>
<rect x="11" y="38" width="5" height="1" fill="black"/>
<rect x="20" y="38" width="3" height="1" fill="black"/>
<rect x="0" y="39" width="3" height="1" fill="black"/>
<rect x="9" y="39" width="6" height="1" fill="black"/>
<rect x="20" y="39" width="3" height="1" fill="black"/>
<rect x="0" y="40" width="4" height="1" fill="black"/>
<rect x="8" y="40" width="6" height="1" fill="black"/>
<rect x="20" y="40" width="3" height="1" fill="black"/>
<rect x="0" y="41" width="4" height="1" fill="black"/>
<rect x="7" y="41" width="6" height="1" fill="black"/>
<rect x="20" y="41" width="3" height="1" fill="black"/>
<rect x="0" y="42" width="4" height="1" fill="black"/>
<rect x="6" y="42" width="6" height="1" fill="black"/>
<rect x="19" y="42" width="4" height="1" fill="black"/>
<rect x="0" y="43" width="11" height="1" fill="black"/>
<rect x="19" y="43" width="4" height="1" fill="black"/>
<rect x="1" y="44" width="9" height="1" fill="black"/>
<rect x="18" y="44" width="5" height="1" fill="black"/>
<rect x="2" y="45" width="7" height="1" fill="black"/>
<rect x="18" y="45" width="4" height="1" fill="black"/>
<rect x="2" y="46" width="6" height="1" fill="black"/>
<rect x="17" y="46" width="5" height="1" fill="black"/>
<rect x="2" y="47" width="7" height="1" fill="black"/>
<rect x="16" y="47" width="5" height="1" fill="black"/>
<rect x="3" y="48" width="17" height="1" fill="black"/>
<rect x="4" y="49" width="15" height="1" fill="black"/>
<rect x="7" y="50" width="11" height="1" fill="black"/>
</svg>
